ISO-10303-21;
HEADER;
/* Generated by software containing ST-Developer
 * from STEP Tools, Inc. (www.steptools.com) 
 */

FILE_DESCRIPTION(
/* description */ ('',
'CAx-IF Rec.Pracs.---Representation and Presentation of Product Manufa
cturing Information (PMI)---4.0---2014-10-13'),
/* implementation_level */ '2;1');

FILE_NAME(
/* name */ 'SOFNG-SS-12D00-G3.step',
/* time_stamp */ '2025-02-22T23:36:54-05:00',
/* author */ (''),
/* organization */ (''),
/* preprocessor_version */ 'ST-DEVELOPER v20',
/* originating_system */ 'Autodesk Translation Framework v13.20.0.188',

/* authorisation */ '');

FILE_SCHEMA (('AP242_MANAGED_MODEL_BASED_3D_ENGINEERING_MIM_LF { 1 0 10303 442 1 1 4 }'));
ENDSEC;

DATA;
#10=MECHANICAL_DESIGN_GEOMETRIC_PRESENTATION_REPRESENTATION('',(#13),#1541);
#11=SHAPE_REPRESENTATION_RELATIONSHIP('SRR','None',#1548,#12);
#12=ADVANCED_BREP_SHAPE_REPRESENTATION('',(#14),#1540);
#13=STYLED_ITEM('',(#1557),#14);
#14=MANIFOLD_SOLID_BREP('Body1',#945);
#15=CIRCLE('',#982,0.100000018999086);
#16=CIRCLE('',#983,0.100000018999086);
#17=CIRCLE('',#985,0.100000018999086);
#18=CIRCLE('',#986,0.100000018999086);
#19=CIRCLE('',#988,0.100000018999086);
#20=CIRCLE('',#989,0.100000018999086);
#21=CIRCLE('',#991,0.100000018999086);
#22=CIRCLE('',#992,0.100000018999086);
#23=CIRCLE('',#994,0.100000018999086);
#24=CIRCLE('',#995,0.100000018999086);
#25=CIRCLE('',#997,0.100000018999086);
#26=CIRCLE('',#998,0.100000018999086);
#27=CIRCLE('',#1000,0.100000018999086);
#28=CIRCLE('',#1001,0.100000018999086);
#29=CYLINDRICAL_SURFACE('',#981,0.100000018999086);
#30=CYLINDRICAL_SURFACE('',#984,0.100000018999086);
#31=CYLINDRICAL_SURFACE('',#987,0.100000018999086);
#32=CYLINDRICAL_SURFACE('',#990,0.100000018999086);
#33=CYLINDRICAL_SURFACE('',#993,0.100000018999086);
#34=CYLINDRICAL_SURFACE('',#996,0.100000018999086);
#35=CYLINDRICAL_SURFACE('',#999,0.100000018999086);
#36=FACE_BOUND('',#116,.T.);
#37=FACE_BOUND('',#117,.T.);
#38=FACE_BOUND('',#137,.T.);
#39=FACE_BOUND('',#149,.T.);
#40=FACE_BOUND('',#150,.T.);
#41=FACE_BOUND('',#151,.T.);
#42=FACE_OUTER_BOUND('',#94,.T.);
#43=FACE_OUTER_BOUND('',#95,.T.);
#44=FACE_OUTER_BOUND('',#96,.T.);
#45=FACE_OUTER_BOUND('',#97,.T.);
#46=FACE_OUTER_BOUND('',#98,.T.);
#47=FACE_OUTER_BOUND('',#99,.T.);
#48=FACE_OUTER_BOUND('',#100,.T.);
#49=FACE_OUTER_BOUND('',#101,.T.);
#50=FACE_OUTER_BOUND('',#102,.T.);
#51=FACE_OUTER_BOUND('',#103,.T.);
#52=FACE_OUTER_BOUND('',#104,.T.);
#53=FACE_OUTER_BOUND('',#105,.T.);
#54=FACE_OUTER_BOUND('',#106,.T.);
#55=FACE_OUTER_BOUND('',#107,.T.);
#56=FACE_OUTER_BOUND('',#108,.T.);
#57=FACE_OUTER_BOUND('',#109,.T.);
#58=FACE_OUTER_BOUND('',#110,.T.);
#59=FACE_OUTER_BOUND('',#111,.T.);
#60=FACE_OUTER_BOUND('',#112,.T.);
#61=FACE_OUTER_BOUND('',#113,.T.);
#62=FACE_OUTER_BOUND('',#114,.T.);
#63=FACE_OUTER_BOUND('',#115,.T.);
#64=FACE_OUTER_BOUND('',#118,.T.);
#65=FACE_OUTER_BOUND('',#119,.T.);
#66=FACE_OUTER_BOUND('',#120,.T.);
#67=FACE_OUTER_BOUND('',#121,.T.);
#68=FACE_OUTER_BOUND('',#122,.T.);
#69=FACE_OUTER_BOUND('',#123,.T.);
#70=FACE_OUTER_BOUND('',#124,.T.);
#71=FACE_OUTER_BOUND('',#125,.T.);
#72=FACE_OUTER_BOUND('',#126,.T.);
#73=FACE_OUTER_BOUND('',#127,.T.);
#74=FACE_OUTER_BOUND('',#128,.T.);
#75=FACE_OUTER_BOUND('',#129,.T.);
#76=FACE_OUTER_BOUND('',#130,.T.);
#77=FACE_OUTER_BOUND('',#131,.T.);
#78=FACE_OUTER_BOUND('',#132,.T.);
#79=FACE_OUTER_BOUND('',#133,.T.);
#80=FACE_OUTER_BOUND('',#134,.T.);
#81=FACE_OUTER_BOUND('',#135,.T.);
#82=FACE_OUTER_BOUND('',#136,.T.);
#83=FACE_OUTER_BOUND('',#138,.T.);
#84=FACE_OUTER_BOUND('',#139,.T.);
#85=FACE_OUTER_BOUND('',#140,.T.);
#86=FACE_OUTER_BOUND('',#141,.T.);
#87=FACE_OUTER_BOUND('',#142,.T.);
#88=FACE_OUTER_BOUND('',#143,.T.);
#89=FACE_OUTER_BOUND('',#144,.T.);
#90=FACE_OUTER_BOUND('',#145,.T.);
#91=FACE_OUTER_BOUND('',#146,.T.);
#92=FACE_OUTER_BOUND('',#147,.T.);
#93=FACE_OUTER_BOUND('',#148,.T.);
#94=EDGE_LOOP('',(#592,#593,#594,#595));
#95=EDGE_LOOP('',(#596,#597,#598,#599));
#96=EDGE_LOOP('',(#600,#601,#602,#603));
#97=EDGE_LOOP('',(#604,#605,#606,#607));
#98=EDGE_LOOP('',(#608,#609,#610,#611));
#99=EDGE_LOOP('',(#612,#613,#614,#615));
#100=EDGE_LOOP('',(#616,#617,#618,#619));
#101=EDGE_LOOP('',(#620,#621,#622,#623));
#102=EDGE_LOOP('',(#624,#625,#626,#627));
#103=EDGE_LOOP('',(#628,#629,#630,#631));
#104=EDGE_LOOP('',(#632,#633,#634,#635));
#105=EDGE_LOOP('',(#636,#637,#638,#639));
#106=EDGE_LOOP('',(#640,#641,#642,#643));
#107=EDGE_LOOP('',(#644,#645,#646,#647));
#108=EDGE_LOOP('',(#648,#649,#650,#651));
#109=EDGE_LOOP('',(#652,#653,#654,#655));
#110=EDGE_LOOP('',(#656,#657,#658,#659));
#111=EDGE_LOOP('',(#660,#661,#662,#663));
#112=EDGE_LOOP('',(#664,#665,#666,#667));
#113=EDGE_LOOP('',(#668,#669,#670,#671));
#114=EDGE_LOOP('',(#672,#673,#674,#675));
#115=EDGE_LOOP('',(#676,#677,#678,#679));
#116=EDGE_LOOP('',(#680,#681,#682,#683));
#117=EDGE_LOOP('',(#684,#685,#686,#687));
#118=EDGE_LOOP('',(#688,#689,#690,#691));
#119=EDGE_LOOP('',(#692,#693,#694,#695));
#120=EDGE_LOOP('',(#696,#697,#698,#699));
#121=EDGE_LOOP('',(#700,#701,#702,#703));
#122=EDGE_LOOP('',(#704,#705,#706,#707));
#123=EDGE_LOOP('',(#708,#709,#710,#711));
#124=EDGE_LOOP('',(#712,#713,#714,#715));
#125=EDGE_LOOP('',(#716,#717,#718,#719));
#126=EDGE_LOOP('',(#720,#721,#722,#723,#724,#725,#726,#727,#728,#729,#730,
#731,#732,#733,#734,#735));
#127=EDGE_LOOP('',(#736,#737,#738,#739));
#128=EDGE_LOOP('',(#740,#741,#742,#743));
#129=EDGE_LOOP('',(#744,#745,#746,#747));
#130=EDGE_LOOP('',(#748,#749,#750,#751));
#131=EDGE_LOOP('',(#752,#753,#754,#755));
#132=EDGE_LOOP('',(#756,#757,#758,#759));
#133=EDGE_LOOP('',(#760,#761,#762,#763));
#134=EDGE_LOOP('',(#764,#765,#766,#767));
#135=EDGE_LOOP('',(#768,#769,#770,#771));
#136=EDGE_LOOP('',(#772,#773,#774,#775));
#137=EDGE_LOOP('',(#776,#777,#778,#779));
#138=EDGE_LOOP('',(#780,#781,#782,#783));
#139=EDGE_LOOP('',(#784,#785,#786,#787));
#140=EDGE_LOOP('',(#788,#789,#790,#791));
#141=EDGE_LOOP('',(#792,#793,#794,#795));
#142=EDGE_LOOP('',(#796,#797,#798,#799));
#143=EDGE_LOOP('',(#800,#801,#802,#803));
#144=EDGE_LOOP('',(#804,#805,#806,#807,#808,#809,#810,#811,#812,#813,#814,
#815,#816,#817,#818,#819));
#145=EDGE_LOOP('',(#820,#821,#822,#823));
#146=EDGE_LOOP('',(#824,#825,#826,#827));
#147=EDGE_LOOP('',(#828,#829,#830,#831));
#148=EDGE_LOOP('',(#832,#833,#834,#835));
#149=EDGE_LOOP('',(#836,#837,#838,#839));
#150=EDGE_LOOP('',(#840,#841,#842,#843));
#151=EDGE_LOOP('',(#844,#845,#846,#847));
#152=LINE('',#1277,#266);
#153=LINE('',#1279,#267);
#154=LINE('',#1281,#268);
#155=LINE('',#1282,#269);
#156=LINE('',#1285,#270);
#157=LINE('',#1287,#271);
#158=LINE('',#1288,#272);
#159=LINE('',#1291,#273);
#160=LINE('',#1293,#274);
#161=LINE('',#1294,#275);
#162=LINE('',#1296,#276);
#163=LINE('',#1297,#277);
#164=LINE('',#1302,#278);
#165=LINE('',#1304,#279);
#166=LINE('',#1306,#280);
#167=LINE('',#1307,#281);
#168=LINE('',#1310,#282);
#169=LINE('',#1312,#283);
#170=LINE('',#1313,#284);
#171=LINE('',#1316,#285);
#172=LINE('',#1318,#286);
#173=LINE('',#1319,#287);
#174=LINE('',#1321,#288);
#175=LINE('',#1322,#289);
#176=LINE('',#1327,#290);
#177=LINE('',#1329,#291);
#178=LINE('',#1331,#292);
#179=LINE('',#1332,#293);
#180=LINE('',#1335,#294);
#181=LINE('',#1337,#295);
#182=LINE('',#1338,#296);
#183=LINE('',#1341,#297);
#184=LINE('',#1343,#298);
#185=LINE('',#1344,#299);
#186=LINE('',#1346,#300);
#187=LINE('',#1347,#301);
#188=LINE('',#1352,#302);
#189=LINE('',#1354,#303);
#190=LINE('',#1356,#304);
#191=LINE('',#1357,#305);
#192=LINE('',#1360,#306);
#193=LINE('',#1362,#307);
#194=LINE('',#1363,#308);
#195=LINE('',#1366,#309);
#196=LINE('',#1368,#310);
#197=LINE('',#1369,#311);
#198=LINE('',#1371,#312);
#199=LINE('',#1372,#313);
#200=LINE('',#1375,#314);
#201=LINE('',#1377,#315);
#202=LINE('',#1378,#316);
#203=LINE('',#1381,#317);
#204=LINE('',#1382,#318);
#205=LINE('',#1386,#319);
#206=LINE('',#1388,#320);
#207=LINE('',#1390,#321);
#208=LINE('',#1391,#322);
#209=LINE('',#1394,#323);
#210=LINE('',#1396,#324);
#211=LINE('',#1398,#325);
#212=LINE('',#1399,#326);
#213=LINE('',#1403,#327);
#214=LINE('',#1407,#328);
#215=LINE('',#1412,#329);
#216=LINE('',#1416,#330);
#217=LINE('',#1421,#331);
#218=LINE('',#1425,#332);
#219=LINE('',#1430,#333);
#220=LINE('',#1434,#334);
#221=LINE('',#1439,#335);
#222=LINE('',#1443,#336);
#223=LINE('',#1448,#337);
#224=LINE('',#1452,#338);
#225=LINE('',#1457,#339);
#226=LINE('',#1461,#340);
#227=LINE('',#1465,#341);
#228=LINE('',#1467,#342);
#229=LINE('',#1468,#343);
#230=LINE('',#1470,#344);
#231=LINE('',#1471,#345);
#232=LINE('',#1472,#346);
#233=LINE('',#1473,#347);
#234=LINE('',#1475,#348);
#235=LINE('',#1476,#349);
#236=LINE('',#1477,#350);
#237=LINE('',#1478,#351);
#238=LINE('',#1480,#352);
#239=LINE('',#1482,#353);
#240=LINE('',#1484,#354);
#241=LINE('',#1486,#355);
#242=LINE('',#1488,#356);
#243=LINE('',#1491,#357);
#244=LINE('',#1493,#358);
#245=LINE('',#1494,#359);
#246=LINE('',#1497,#360);
#247=LINE('',#1498,#361);
#248=LINE('',#1501,#362);
#249=LINE('',#1502,#363);
#250=LINE('',#1504,#364);
#251=LINE('',#1507,#365);
#252=LINE('',#1508,#366);
#253=LINE('',#1510,#367);
#254=LINE('',#1513,#368);
#255=LINE('',#1515,#369);
#256=LINE('',#1516,#370);
#257=LINE('',#1519,#371);
#258=LINE('',#1520,#372);
#259=LINE('',#1523,#373);
#260=LINE('',#1524,#374);
#261=LINE('',#1526,#375);
#262=LINE('',#1529,#376);
#263=LINE('',#1533,#377);
#264=LINE('',#1534,#378);
#265=LINE('',#1536,#379);
#266=VECTOR('',#1029,10.);
#267=VECTOR('',#1030,10.);
#268=VECTOR('',#1031,10.);
#269=VECTOR('',#1032,10.);
#270=VECTOR('',#1035,10.);
#271=VECTOR('',#1036,10.);
#272=VECTOR('',#1037,10.);
#273=VECTOR('',#1040,10.);
#274=VECTOR('',#1041,10.);
#275=VECTOR('',#1042,10.);
#276=VECTOR('',#1045,10.);
#277=VECTOR('',#1046,10.);
#278=VECTOR('',#1051,10.);
#279=VECTOR('',#1052,10.);
#280=VECTOR('',#1053,10.);
#281=VECTOR('',#1054,10.);
#282=VECTOR('',#1057,10.);
#283=VECTOR('',#1058,10.);
#284=VECTOR('',#1059,10.);
#285=VECTOR('',#1062,10.);
#286=VECTOR('',#1063,10.);
#287=VECTOR('',#1064,10.);
#288=VECTOR('',#1067,10.);
#289=VECTOR('',#1068,10.);
#290=VECTOR('',#1073,10.);
#291=VECTOR('',#1074,10.);
#292=VECTOR('',#1075,10.);
#293=VECTOR('',#1076,10.);
#294=VECTOR('',#1079,10.);
#295=VECTOR('',#1080,10.);
#296=VECTOR('',#1081,10.);
#297=VECTOR('',#1084,10.);
#298=VECTOR('',#1085,10.);
#299=VECTOR('',#1086,10.);
#300=VECTOR('',#1089,10.);
#301=VECTOR('',#1090,10.);
#302=VECTOR('',#1095,10.);
#303=VECTOR('',#1096,10.);
#304=VECTOR('',#1097,10.);
#305=VECTOR('',#1098,10.);
#306=VECTOR('',#1101,10.);
#307=VECTOR('',#1102,10.);
#308=VECTOR('',#1103,10.);
#309=VECTOR('',#1106,10.);
#310=VECTOR('',#1107,10.);
#311=VECTOR('',#1108,10.);
#312=VECTOR('',#1111,10.);
#313=VECTOR('',#1112,10.);
#314=VECTOR('',#1115,10.);
#315=VECTOR('',#1116,10.);
#316=VECTOR('',#1117,10.);
#317=VECTOR('',#1120,10.);
#318=VECTOR('',#1121,10.);
#319=VECTOR('',#1124,10.);
#320=VECTOR('',#1125,10.);
#321=VECTOR('',#1126,10.);
#322=VECTOR('',#1127,10.);
#323=VECTOR('',#1128,10.);
#324=VECTOR('',#1129,10.);
#325=VECTOR('',#1130,10.);
#326=VECTOR('',#1131,10.);
#327=VECTOR('',#1134,10.);
#328=VECTOR('',#1137,10.);
#329=VECTOR('',#1142,10.);
#330=VECTOR('',#1145,10.);
#331=VECTOR('',#1150,10.);
#332=VECTOR('',#1153,10.);
#333=VECTOR('',#1158,10.);
#334=VECTOR('',#1161,10.);
#335=VECTOR('',#1166,10.);
#336=VECTOR('',#1169,10.);
#337=VECTOR('',#1174,10.);
#338=VECTOR('',#1177,10.);
#339=VECTOR('',#1182,10.);
#340=VECTOR('',#1185,10.);
#341=VECTOR('',#1190,10.);
#342=VECTOR('',#1191,10.);
#343=VECTOR('',#1192,10.);
#344=VECTOR('',#1195,10.);
#345=VECTOR('',#1196,10.);
#346=VECTOR('',#1197,10.);
#347=VECTOR('',#1198,10.);
#348=VECTOR('',#1199,10.);
#349=VECTOR('',#1200,10.);
#350=VECTOR('',#1201,10.);
#351=VECTOR('',#1202,10.);
#352=VECTOR('',#1205,10.);
#353=VECTOR('',#1208,10.);
#354=VECTOR('',#1211,10.);
#355=VECTOR('',#1214,10.);
#356=VECTOR('',#1217,10.);
#357=VECTOR('',#1220,10.);
#358=VECTOR('',#1221,10.);
#359=VECTOR('',#1222,10.);
#360=VECTOR('',#1225,10.);
#361=VECTOR('',#1226,10.);
#362=VECTOR('',#1229,10.);
#363=VECTOR('',#1230,10.);
#364=VECTOR('',#1233,10.);
#365=VECTOR('',#1236,10.);
#366=VECTOR('',#1237,10.);
#367=VECTOR('',#1240,10.);
#368=VECTOR('',#1243,10.);
#369=VECTOR('',#1244,10.);
#370=VECTOR('',#1245,10.);
#371=VECTOR('',#1248,10.);
#372=VECTOR('',#1249,10.);
#373=VECTOR('',#1252,10.);
#374=VECTOR('',#1253,10.);
#375=VECTOR('',#1256,10.);
#376=VECTOR('',#1261,10.);
#377=VECTOR('',#1266,10.);
#378=VECTOR('',#1267,10.);
#379=VECTOR('',#1270,10.);
#380=VERTEX_POINT('',#1275);
#381=VERTEX_POINT('',#1276);
#382=VERTEX_POINT('',#1278);
#383=VERTEX_POINT('',#1280);
#384=VERTEX_POINT('',#1284);
#385=VERTEX_POINT('',#1286);
#386=VERTEX_POINT('',#1290);
#387=VERTEX_POINT('',#1292);
#388=VERTEX_POINT('',#1300);
#389=VERTEX_POINT('',#1301);
#390=VERTEX_POINT('',#1303);
#391=VERTEX_POINT('',#1305);
#392=VERTEX_POINT('',#1309);
#393=VERTEX_POINT('',#1311);
#394=VERTEX_POINT('',#1315);
#395=VERTEX_POINT('',#1317);
#396=VERTEX_POINT('',#1325);
#397=VERTEX_POINT('',#1326);
#398=VERTEX_POINT('',#1328);
#399=VERTEX_POINT('',#1330);
#400=VERTEX_POINT('',#1334);
#401=VERTEX_POINT('',#1336);
#402=VERTEX_POINT('',#1340);
#403=VERTEX_POINT('',#1342);
#404=VERTEX_POINT('',#1350);
#405=VERTEX_POINT('',#1351);
#406=VERTEX_POINT('',#1353);
#407=VERTEX_POINT('',#1355);
#408=VERTEX_POINT('',#1359);
#409=VERTEX_POINT('',#1361);
#410=VERTEX_POINT('',#1365);
#411=VERTEX_POINT('',#1367);
#412=VERTEX_POINT('',#1374);
#413=VERTEX_POINT('',#1376);
#414=VERTEX_POINT('',#1380);
#415=VERTEX_POINT('',#1384);
#416=VERTEX_POINT('',#1385);
#417=VERTEX_POINT('',#1387);
#418=VERTEX_POINT('',#1389);
#419=VERTEX_POINT('',#1392);
#420=VERTEX_POINT('',#1393);
#421=VERTEX_POINT('',#1395);
#422=VERTEX_POINT('',#1397);
#423=VERTEX_POINT('',#1401);
#424=VERTEX_POINT('',#1402);
#425=VERTEX_POINT('',#1404);
#426=VERTEX_POINT('',#1406);
#427=VERTEX_POINT('',#1410);
#428=VERTEX_POINT('',#1411);
#429=VERTEX_POINT('',#1413);
#430=VERTEX_POINT('',#1415);
#431=VERTEX_POINT('',#1419);
#432=VERTEX_POINT('',#1420);
#433=VERTEX_POINT('',#1422);
#434=VERTEX_POINT('',#1424);
#435=VERTEX_POINT('',#1428);
#436=VERTEX_POINT('',#1429);
#437=VERTEX_POINT('',#1431);
#438=VERTEX_POINT('',#1433);
#439=VERTEX_POINT('',#1437);
#440=VERTEX_POINT('',#1438);
#441=VERTEX_POINT('',#1440);
#442=VERTEX_POINT('',#1442);
#443=VERTEX_POINT('',#1446);
#444=VERTEX_POINT('',#1447);
#445=VERTEX_POINT('',#1449);
#446=VERTEX_POINT('',#1451);
#447=VERTEX_POINT('',#1455);
#448=VERTEX_POINT('',#1456);
#449=VERTEX_POINT('',#1458);
#450=VERTEX_POINT('',#1460);
#451=VERTEX_POINT('',#1464);
#452=VERTEX_POINT('',#1466);
#453=VERTEX_POINT('',#1474);
#454=VERTEX_POINT('',#1490);
#455=VERTEX_POINT('',#1492);
#456=VERTEX_POINT('',#1496);
#457=VERTEX_POINT('',#1500);
#458=VERTEX_POINT('',#1506);
#459=VERTEX_POINT('',#1512);
#460=VERTEX_POINT('',#1514);
#461=VERTEX_POINT('',#1518);
#462=VERTEX_POINT('',#1522);
#463=VERTEX_POINT('',#1532);
#464=EDGE_CURVE('',#380,#381,#152,.T.);
#465=EDGE_CURVE('',#380,#382,#153,.T.);
#466=EDGE_CURVE('',#383,#382,#154,.T.);
#467=EDGE_CURVE('',#381,#383,#155,.T.);
#468=EDGE_CURVE('',#381,#384,#156,.T.);
#469=EDGE_CURVE('',#385,#383,#157,.T.);
#470=EDGE_CURVE('',#384,#385,#158,.T.);
#471=EDGE_CURVE('',#384,#386,#159,.T.);
#472=EDGE_CURVE('',#387,#385,#160,.T.);
#473=EDGE_CURVE('',#386,#387,#161,.T.);
#474=EDGE_CURVE('',#386,#380,#162,.T.);
#475=EDGE_CURVE('',#382,#387,#163,.T.);
#476=EDGE_CURVE('',#388,#389,#164,.T.);
#477=EDGE_CURVE('',#388,#390,#165,.T.);
#478=EDGE_CURVE('',#391,#390,#166,.T.);
#479=EDGE_CURVE('',#389,#391,#167,.T.);
#480=EDGE_CURVE('',#389,#392,#168,.T.);
#481=EDGE_CURVE('',#393,#391,#169,.T.);
#482=EDGE_CURVE('',#392,#393,#170,.T.);
#483=EDGE_CURVE('',#392,#394,#171,.T.);
#484=EDGE_CURVE('',#395,#393,#172,.T.);
#485=EDGE_CURVE('',#394,#395,#173,.T.);
#486=EDGE_CURVE('',#394,#388,#174,.T.);
#487=EDGE_CURVE('',#390,#395,#175,.T.);
#488=EDGE_CURVE('',#396,#397,#176,.T.);
#489=EDGE_CURVE('',#396,#398,#177,.T.);
#490=EDGE_CURVE('',#399,#398,#178,.T.);
#491=EDGE_CURVE('',#397,#399,#179,.T.);
#492=EDGE_CURVE('',#397,#400,#180,.T.);
#493=EDGE_CURVE('',#401,#399,#181,.T.);
#494=EDGE_CURVE('',#400,#401,#182,.T.);
#495=EDGE_CURVE('',#400,#402,#183,.T.);
#496=EDGE_CURVE('',#403,#401,#184,.T.);
#497=EDGE_CURVE('',#402,#403,#185,.T.);
#498=EDGE_CURVE('',#402,#396,#186,.T.);
#499=EDGE_CURVE('',#398,#403,#187,.T.);
#500=EDGE_CURVE('',#404,#405,#188,.T.);
#501=EDGE_CURVE('',#405,#406,#189,.T.);
#502=EDGE_CURVE('',#406,#407,#190,.T.);
#503=EDGE_CURVE('',#404,#407,#191,.T.);
#504=EDGE_CURVE('',#405,#408,#192,.T.);
#505=EDGE_CURVE('',#408,#409,#193,.T.);
#506=EDGE_CURVE('',#409,#406,#194,.T.);
#507=EDGE_CURVE('',#408,#410,#195,.T.);
#508=EDGE_CURVE('',#410,#411,#196,.T.);
#509=EDGE_CURVE('',#411,#409,#197,.T.);
#510=EDGE_CURVE('',#407,#411,#198,.T.);
#511=EDGE_CURVE('',#410,#404,#199,.T.);
#512=EDGE_CURVE('',#412,#407,#200,.T.);
#513=EDGE_CURVE('',#413,#412,#201,.T.);
#514=EDGE_CURVE('',#413,#411,#202,.T.);
#515=EDGE_CURVE('',#414,#406,#203,.T.);
#516=EDGE_CURVE('',#412,#414,#204,.T.);
#517=EDGE_CURVE('',#415,#416,#205,.T.);
#518=EDGE_CURVE('',#416,#417,#206,.T.);
#519=EDGE_CURVE('',#417,#418,#207,.T.);
#520=EDGE_CURVE('',#418,#415,#208,.T.);
#521=EDGE_CURVE('',#419,#420,#209,.T.);
#522=EDGE_CURVE('',#420,#421,#210,.T.);
#523=EDGE_CURVE('',#421,#422,#211,.T.);
#524=EDGE_CURVE('',#419,#422,#212,.T.);
#525=EDGE_CURVE('',#423,#424,#213,.T.);
#526=EDGE_CURVE('',#425,#423,#15,.T.);
#527=EDGE_CURVE('',#426,#425,#214,.T.);
#528=EDGE_CURVE('',#424,#426,#16,.T.);
#529=EDGE_CURVE('',#427,#428,#215,.T.);
#530=EDGE_CURVE('',#429,#427,#17,.T.);
#531=EDGE_CURVE('',#430,#429,#216,.T.);
#532=EDGE_CURVE('',#428,#430,#18,.T.);
#533=EDGE_CURVE('',#431,#432,#217,.T.);
#534=EDGE_CURVE('',#433,#431,#19,.T.);
#535=EDGE_CURVE('',#434,#433,#218,.T.);
#536=EDGE_CURVE('',#432,#434,#20,.T.);
#537=EDGE_CURVE('',#435,#436,#219,.T.);
#538=EDGE_CURVE('',#437,#435,#21,.T.);
#539=EDGE_CURVE('',#438,#437,#220,.T.);
#540=EDGE_CURVE('',#436,#438,#22,.T.);
#541=EDGE_CURVE('',#439,#440,#221,.T.);
#542=EDGE_CURVE('',#441,#439,#23,.T.);
#543=EDGE_CURVE('',#442,#441,#222,.T.);
#544=EDGE_CURVE('',#440,#442,#24,.T.);
#545=EDGE_CURVE('',#443,#444,#223,.T.);
#546=EDGE_CURVE('',#445,#443,#25,.T.);
#547=EDGE_CURVE('',#446,#445,#224,.T.);
#548=EDGE_CURVE('',#444,#446,#26,.T.);
#549=EDGE_CURVE('',#447,#448,#225,.T.);
#550=EDGE_CURVE('',#449,#447,#27,.T.);
#551=EDGE_CURVE('',#450,#449,#226,.T.);
#552=EDGE_CURVE('',#448,#450,#28,.T.);
#553=EDGE_CURVE('',#451,#437,#227,.T.);
#554=EDGE_CURVE('',#451,#452,#228,.T.);
#555=EDGE_CURVE('',#452,#438,#229,.T.);
#556=EDGE_CURVE('',#440,#426,#230,.T.);
#557=EDGE_CURVE('',#444,#442,#231,.T.);
#558=EDGE_CURVE('',#448,#446,#232,.T.);
#559=EDGE_CURVE('',#432,#450,#233,.T.);
#560=EDGE_CURVE('',#453,#434,#234,.T.);
#561=EDGE_CURVE('',#453,#451,#235,.T.);
#562=EDGE_CURVE('',#428,#435,#236,.T.);
#563=EDGE_CURVE('',#424,#430,#237,.T.);
#564=EDGE_CURVE('',#445,#447,#238,.T.);
#565=EDGE_CURVE('',#441,#443,#239,.T.);
#566=EDGE_CURVE('',#425,#439,#240,.T.);
#567=EDGE_CURVE('',#449,#431,#241,.T.);
#568=EDGE_CURVE('',#436,#427,#242,.T.);
#569=EDGE_CURVE('',#418,#454,#243,.T.);
#570=EDGE_CURVE('',#454,#455,#244,.T.);
#571=EDGE_CURVE('',#415,#455,#245,.T.);
#572=EDGE_CURVE('',#417,#456,#246,.T.);
#573=EDGE_CURVE('',#456,#454,#247,.T.);
#574=EDGE_CURVE('',#416,#457,#248,.T.);
#575=EDGE_CURVE('',#457,#456,#249,.T.);
#576=EDGE_CURVE('',#455,#457,#250,.T.);
#577=EDGE_CURVE('',#458,#453,#251,.T.);
#578=EDGE_CURVE('',#452,#458,#252,.T.);
#579=EDGE_CURVE('',#458,#433,#253,.T.);
#580=EDGE_CURVE('',#422,#459,#254,.T.);
#581=EDGE_CURVE('',#459,#460,#255,.T.);
#582=EDGE_CURVE('',#419,#460,#256,.T.);
#583=EDGE_CURVE('',#421,#461,#257,.T.);
#584=EDGE_CURVE('',#461,#459,#258,.T.);
#585=EDGE_CURVE('',#420,#462,#259,.T.);
#586=EDGE_CURVE('',#462,#461,#260,.T.);
#587=EDGE_CURVE('',#460,#462,#261,.T.);
#588=EDGE_CURVE('',#429,#423,#262,.T.);
#589=EDGE_CURVE('',#463,#409,#263,.T.);
#590=EDGE_CURVE('',#414,#463,#264,.T.);
#591=EDGE_CURVE('',#463,#413,#265,.T.);
#592=ORIENTED_EDGE('',*,*,#464,.F.);
#593=ORIENTED_EDGE('',*,*,#465,.T.);
#594=ORIENTED_EDGE('',*,*,#466,.F.);
#595=ORIENTED_EDGE('',*,*,#467,.F.);
#596=ORIENTED_EDGE('',*,*,#468,.F.);
#597=ORIENTED_EDGE('',*,*,#467,.T.);
#598=ORIENTED_EDGE('',*,*,#469,.F.);
#599=ORIENTED_EDGE('',*,*,#470,.F.);
#600=ORIENTED_EDGE('',*,*,#471,.F.);
#601=ORIENTED_EDGE('',*,*,#470,.T.);
#602=ORIENTED_EDGE('',*,*,#472,.F.);
#603=ORIENTED_EDGE('',*,*,#473,.F.);
#604=ORIENTED_EDGE('',*,*,#474,.F.);
#605=ORIENTED_EDGE('',*,*,#473,.T.);
#606=ORIENTED_EDGE('',*,*,#475,.F.);
#607=ORIENTED_EDGE('',*,*,#465,.F.);
#608=ORIENTED_EDGE('',*,*,#475,.T.);
#609=ORIENTED_EDGE('',*,*,#472,.T.);
#610=ORIENTED_EDGE('',*,*,#469,.T.);
#611=ORIENTED_EDGE('',*,*,#466,.T.);
#612=ORIENTED_EDGE('',*,*,#476,.F.);
#613=ORIENTED_EDGE('',*,*,#477,.T.);
#614=ORIENTED_EDGE('',*,*,#478,.F.);
#615=ORIENTED_EDGE('',*,*,#479,.F.);
#616=ORIENTED_EDGE('',*,*,#480,.F.);
#617=ORIENTED_EDGE('',*,*,#479,.T.);
#618=ORIENTED_EDGE('',*,*,#481,.F.);
#619=ORIENTED_EDGE('',*,*,#482,.F.);
#620=ORIENTED_EDGE('',*,*,#483,.F.);
#621=ORIENTED_EDGE('',*,*,#482,.T.);
#622=ORIENTED_EDGE('',*,*,#484,.F.);
#623=ORIENTED_EDGE('',*,*,#485,.F.);
#624=ORIENTED_EDGE('',*,*,#486,.F.);
#625=ORIENTED_EDGE('',*,*,#485,.T.);
#626=ORIENTED_EDGE('',*,*,#487,.F.);
#627=ORIENTED_EDGE('',*,*,#477,.F.);
#628=ORIENTED_EDGE('',*,*,#487,.T.);
#629=ORIENTED_EDGE('',*,*,#484,.T.);
#630=ORIENTED_EDGE('',*,*,#481,.T.);
#631=ORIENTED_EDGE('',*,*,#478,.T.);
#632=ORIENTED_EDGE('',*,*,#488,.F.);
#633=ORIENTED_EDGE('',*,*,#489,.T.);
#634=ORIENTED_EDGE('',*,*,#490,.F.);
#635=ORIENTED_EDGE('',*,*,#491,.F.);
#636=ORIENTED_EDGE('',*,*,#492,.F.);
#637=ORIENTED_EDGE('',*,*,#491,.T.);
#638=ORIENTED_EDGE('',*,*,#493,.F.);
#639=ORIENTED_EDGE('',*,*,#494,.F.);
#640=ORIENTED_EDGE('',*,*,#495,.F.);
#641=ORIENTED_EDGE('',*,*,#494,.T.);
#642=ORIENTED_EDGE('',*,*,#496,.F.);
#643=ORIENTED_EDGE('',*,*,#497,.F.);
#644=ORIENTED_EDGE('',*,*,#498,.F.);
#645=ORIENTED_EDGE('',*,*,#497,.T.);
#646=ORIENTED_EDGE('',*,*,#499,.F.);
#647=ORIENTED_EDGE('',*,*,#489,.F.);
#648=ORIENTED_EDGE('',*,*,#499,.T.);
#649=ORIENTED_EDGE('',*,*,#496,.T.);
#650=ORIENTED_EDGE('',*,*,#493,.T.);
#651=ORIENTED_EDGE('',*,*,#490,.T.);
#652=ORIENTED_EDGE('',*,*,#500,.T.);
#653=ORIENTED_EDGE('',*,*,#501,.T.);
#654=ORIENTED_EDGE('',*,*,#502,.T.);
#655=ORIENTED_EDGE('',*,*,#503,.F.);
#656=ORIENTED_EDGE('',*,*,#504,.T.);
#657=ORIENTED_EDGE('',*,*,#505,.T.);
#658=ORIENTED_EDGE('',*,*,#506,.T.);
#659=ORIENTED_EDGE('',*,*,#501,.F.);
#660=ORIENTED_EDGE('',*,*,#507,.T.);
#661=ORIENTED_EDGE('',*,*,#508,.T.);
#662=ORIENTED_EDGE('',*,*,#509,.T.);
#663=ORIENTED_EDGE('',*,*,#505,.F.);
#664=ORIENTED_EDGE('',*,*,#510,.T.);
#665=ORIENTED_EDGE('',*,*,#508,.F.);
#666=ORIENTED_EDGE('',*,*,#511,.T.);
#667=ORIENTED_EDGE('',*,*,#503,.T.);
#668=ORIENTED_EDGE('',*,*,#510,.F.);
#669=ORIENTED_EDGE('',*,*,#512,.F.);
#670=ORIENTED_EDGE('',*,*,#513,.F.);
#671=ORIENTED_EDGE('',*,*,#514,.T.);
#672=ORIENTED_EDGE('',*,*,#502,.F.);
#673=ORIENTED_EDGE('',*,*,#515,.F.);
#674=ORIENTED_EDGE('',*,*,#516,.F.);
#675=ORIENTED_EDGE('',*,*,#512,.T.);
#676=ORIENTED_EDGE('',*,*,#500,.F.);
#677=ORIENTED_EDGE('',*,*,#511,.F.);
#678=ORIENTED_EDGE('',*,*,#507,.F.);
#679=ORIENTED_EDGE('',*,*,#504,.F.);
#680=ORIENTED_EDGE('',*,*,#517,.T.);
#681=ORIENTED_EDGE('',*,*,#518,.T.);
#682=ORIENTED_EDGE('',*,*,#519,.T.);
#683=ORIENTED_EDGE('',*,*,#520,.T.);
#684=ORIENTED_EDGE('',*,*,#521,.T.);
#685=ORIENTED_EDGE('',*,*,#522,.T.);
#686=ORIENTED_EDGE('',*,*,#523,.T.);
#687=ORIENTED_EDGE('',*,*,#524,.F.);
#688=ORIENTED_EDGE('',*,*,#525,.F.);
#689=ORIENTED_EDGE('',*,*,#526,.F.);
#690=ORIENTED_EDGE('',*,*,#527,.F.);
#691=ORIENTED_EDGE('',*,*,#528,.F.);
#692=ORIENTED_EDGE('',*,*,#529,.F.);
#693=ORIENTED_EDGE('',*,*,#530,.F.);
#694=ORIENTED_EDGE('',*,*,#531,.F.);
#695=ORIENTED_EDGE('',*,*,#532,.F.);
#696=ORIENTED_EDGE('',*,*,#533,.F.);
#697=ORIENTED_EDGE('',*,*,#534,.F.);
#698=ORIENTED_EDGE('',*,*,#535,.F.);
#699=ORIENTED_EDGE('',*,*,#536,.F.);
#700=ORIENTED_EDGE('',*,*,#537,.F.);
#701=ORIENTED_EDGE('',*,*,#538,.F.);
#702=ORIENTED_EDGE('',*,*,#539,.F.);
#703=ORIENTED_EDGE('',*,*,#540,.F.);
#704=ORIENTED_EDGE('',*,*,#541,.F.);
#705=ORIENTED_EDGE('',*,*,#542,.F.);
#706=ORIENTED_EDGE('',*,*,#543,.F.);
#707=ORIENTED_EDGE('',*,*,#544,.F.);
#708=ORIENTED_EDGE('',*,*,#545,.F.);
#709=ORIENTED_EDGE('',*,*,#546,.F.);
#710=ORIENTED_EDGE('',*,*,#547,.F.);
#711=ORIENTED_EDGE('',*,*,#548,.F.);
#712=ORIENTED_EDGE('',*,*,#549,.F.);
#713=ORIENTED_EDGE('',*,*,#550,.F.);
#714=ORIENTED_EDGE('',*,*,#551,.F.);
#715=ORIENTED_EDGE('',*,*,#552,.F.);
#716=ORIENTED_EDGE('',*,*,#539,.T.);
#717=ORIENTED_EDGE('',*,*,#553,.F.);
#718=ORIENTED_EDGE('',*,*,#554,.T.);
#719=ORIENTED_EDGE('',*,*,#555,.T.);
#720=ORIENTED_EDGE('',*,*,#528,.T.);
#721=ORIENTED_EDGE('',*,*,#556,.F.);
#722=ORIENTED_EDGE('',*,*,#544,.T.);
#723=ORIENTED_EDGE('',*,*,#557,.F.);
#724=ORIENTED_EDGE('',*,*,#548,.T.);
#725=ORIENTED_EDGE('',*,*,#558,.F.);
#726=ORIENTED_EDGE('',*,*,#552,.T.);
#727=ORIENTED_EDGE('',*,*,#559,.F.);
#728=ORIENTED_EDGE('',*,*,#536,.T.);
#729=ORIENTED_EDGE('',*,*,#560,.F.);
#730=ORIENTED_EDGE('',*,*,#561,.T.);
#731=ORIENTED_EDGE('',*,*,#553,.T.);
#732=ORIENTED_EDGE('',*,*,#538,.T.);
#733=ORIENTED_EDGE('',*,*,#562,.F.);
#734=ORIENTED_EDGE('',*,*,#532,.T.);
#735=ORIENTED_EDGE('',*,*,#563,.F.);
#736=ORIENTED_EDGE('',*,*,#547,.T.);
#737=ORIENTED_EDGE('',*,*,#564,.T.);
#738=ORIENTED_EDGE('',*,*,#549,.T.);
#739=ORIENTED_EDGE('',*,*,#558,.T.);
#740=ORIENTED_EDGE('',*,*,#543,.T.);
#741=ORIENTED_EDGE('',*,*,#565,.T.);
#742=ORIENTED_EDGE('',*,*,#545,.T.);
#743=ORIENTED_EDGE('',*,*,#557,.T.);
#744=ORIENTED_EDGE('',*,*,#527,.T.);
#745=ORIENTED_EDGE('',*,*,#566,.T.);
#746=ORIENTED_EDGE('',*,*,#541,.T.);
#747=ORIENTED_EDGE('',*,*,#556,.T.);
#748=ORIENTED_EDGE('',*,*,#533,.T.);
#749=ORIENTED_EDGE('',*,*,#559,.T.);
#750=ORIENTED_EDGE('',*,*,#551,.T.);
#751=ORIENTED_EDGE('',*,*,#567,.T.);
#752=ORIENTED_EDGE('',*,*,#529,.T.);
#753=ORIENTED_EDGE('',*,*,#562,.T.);
#754=ORIENTED_EDGE('',*,*,#537,.T.);
#755=ORIENTED_EDGE('',*,*,#568,.T.);
#756=ORIENTED_EDGE('',*,*,#520,.F.);
#757=ORIENTED_EDGE('',*,*,#569,.T.);
#758=ORIENTED_EDGE('',*,*,#570,.T.);
#759=ORIENTED_EDGE('',*,*,#571,.F.);
#760=ORIENTED_EDGE('',*,*,#519,.F.);
#761=ORIENTED_EDGE('',*,*,#572,.T.);
#762=ORIENTED_EDGE('',*,*,#573,.T.);
#763=ORIENTED_EDGE('',*,*,#569,.F.);
#764=ORIENTED_EDGE('',*,*,#518,.F.);
#765=ORIENTED_EDGE('',*,*,#574,.T.);
#766=ORIENTED_EDGE('',*,*,#575,.T.);
#767=ORIENTED_EDGE('',*,*,#572,.F.);
#768=ORIENTED_EDGE('',*,*,#517,.F.);
#769=ORIENTED_EDGE('',*,*,#571,.T.);
#770=ORIENTED_EDGE('',*,*,#576,.T.);
#771=ORIENTED_EDGE('',*,*,#574,.F.);
#772=ORIENTED_EDGE('',*,*,#577,.F.);
#773=ORIENTED_EDGE('',*,*,#578,.F.);
#774=ORIENTED_EDGE('',*,*,#554,.F.);
#775=ORIENTED_EDGE('',*,*,#561,.F.);
#776=ORIENTED_EDGE('',*,*,#576,.F.);
#777=ORIENTED_EDGE('',*,*,#570,.F.);
#778=ORIENTED_EDGE('',*,*,#573,.F.);
#779=ORIENTED_EDGE('',*,*,#575,.F.);
#780=ORIENTED_EDGE('',*,*,#535,.T.);
#781=ORIENTED_EDGE('',*,*,#579,.F.);
#782=ORIENTED_EDGE('',*,*,#577,.T.);
#783=ORIENTED_EDGE('',*,*,#560,.T.);
#784=ORIENTED_EDGE('',*,*,#524,.T.);
#785=ORIENTED_EDGE('',*,*,#580,.T.);
#786=ORIENTED_EDGE('',*,*,#581,.T.);
#787=ORIENTED_EDGE('',*,*,#582,.F.);
#788=ORIENTED_EDGE('',*,*,#523,.F.);
#789=ORIENTED_EDGE('',*,*,#583,.T.);
#790=ORIENTED_EDGE('',*,*,#584,.T.);
#791=ORIENTED_EDGE('',*,*,#580,.F.);
#792=ORIENTED_EDGE('',*,*,#522,.F.);
#793=ORIENTED_EDGE('',*,*,#585,.T.);
#794=ORIENTED_EDGE('',*,*,#586,.T.);
#795=ORIENTED_EDGE('',*,*,#583,.F.);
#796=ORIENTED_EDGE('',*,*,#521,.F.);
#797=ORIENTED_EDGE('',*,*,#582,.T.);
#798=ORIENTED_EDGE('',*,*,#587,.T.);
#799=ORIENTED_EDGE('',*,*,#585,.F.);
#800=ORIENTED_EDGE('',*,*,#581,.F.);
#801=ORIENTED_EDGE('',*,*,#584,.F.);
#802=ORIENTED_EDGE('',*,*,#586,.F.);
#803=ORIENTED_EDGE('',*,*,#587,.F.);
#804=ORIENTED_EDGE('',*,*,#526,.T.);
#805=ORIENTED_EDGE('',*,*,#588,.F.);
#806=ORIENTED_EDGE('',*,*,#530,.T.);
#807=ORIENTED_EDGE('',*,*,#568,.F.);
#808=ORIENTED_EDGE('',*,*,#540,.T.);
#809=ORIENTED_EDGE('',*,*,#555,.F.);
#810=ORIENTED_EDGE('',*,*,#578,.T.);
#811=ORIENTED_EDGE('',*,*,#579,.T.);
#812=ORIENTED_EDGE('',*,*,#534,.T.);
#813=ORIENTED_EDGE('',*,*,#567,.F.);
#814=ORIENTED_EDGE('',*,*,#550,.T.);
#815=ORIENTED_EDGE('',*,*,#564,.F.);
#816=ORIENTED_EDGE('',*,*,#546,.T.);
#817=ORIENTED_EDGE('',*,*,#565,.F.);
#818=ORIENTED_EDGE('',*,*,#542,.T.);
#819=ORIENTED_EDGE('',*,*,#566,.F.);
#820=ORIENTED_EDGE('',*,*,#525,.T.);
#821=ORIENTED_EDGE('',*,*,#563,.T.);
#822=ORIENTED_EDGE('',*,*,#531,.T.);
#823=ORIENTED_EDGE('',*,*,#588,.T.);
#824=ORIENTED_EDGE('',*,*,#506,.F.);
#825=ORIENTED_EDGE('',*,*,#589,.F.);
#826=ORIENTED_EDGE('',*,*,#590,.F.);
#827=ORIENTED_EDGE('',*,*,#515,.T.);
#828=ORIENTED_EDGE('',*,*,#509,.F.);
#829=ORIENTED_EDGE('',*,*,#514,.F.);
#830=ORIENTED_EDGE('',*,*,#591,.F.);
#831=ORIENTED_EDGE('',*,*,#589,.T.);
#832=ORIENTED_EDGE('',*,*,#516,.T.);
#833=ORIENTED_EDGE('',*,*,#590,.T.);
#834=ORIENTED_EDGE('',*,*,#591,.T.);
#835=ORIENTED_EDGE('',*,*,#513,.T.);
#836=ORIENTED_EDGE('',*,*,#464,.T.);
#837=ORIENTED_EDGE('',*,*,#468,.T.);
#838=ORIENTED_EDGE('',*,*,#471,.T.);
#839=ORIENTED_EDGE('',*,*,#474,.T.);
#840=ORIENTED_EDGE('',*,*,#476,.T.);
#841=ORIENTED_EDGE('',*,*,#480,.T.);
#842=ORIENTED_EDGE('',*,*,#483,.T.);
#843=ORIENTED_EDGE('',*,*,#486,.T.);
#844=ORIENTED_EDGE('',*,*,#488,.T.);
#845=ORIENTED_EDGE('',*,*,#492,.T.);
#846=ORIENTED_EDGE('',*,*,#495,.T.);
#847=ORIENTED_EDGE('',*,*,#498,.T.);
#848=PLANE('',#959);
#849=PLANE('',#960);
#850=PLANE('',#961);
#851=PLANE('',#962);
#852=PLANE('',#963);
#853=PLANE('',#964);
#854=PLANE('',#965);
#855=PLANE('',#966);
#856=PLANE('',#967);
#857=PLANE('',#968);
#858=PLANE('',#969);
#859=PLANE('',#970);
#860=PLANE('',#971);
#861=PLANE('',#972);
#862=PLANE('',#973);
#863=PLANE('',#974);
#864=PLANE('',#975);
#865=PLANE('',#976);
#866=PLANE('',#977);
#867=PLANE('',#978);
#868=PLANE('',#979);
#869=PLANE('',#980);
#870=PLANE('',#1002);
#871=PLANE('',#1003);
#872=PLANE('',#1004);
#873=PLANE('',#1005);
#874=PLANE('',#1006);
#875=PLANE('',#1007);
#876=PLANE('',#1008);
#877=PLANE('',#1009);
#878=PLANE('',#1010);
#879=PLANE('',#1011);
#880=PLANE('',#1012);
#881=PLANE('',#1013);
#882=PLANE('',#1014);
#883=PLANE('',#1015);
#884=PLANE('',#1016);
#885=PLANE('',#1017);
#886=PLANE('',#1018);
#887=PLANE('',#1019);
#888=PLANE('',#1020);
#889=PLANE('',#1021);
#890=PLANE('',#1022);
#891=PLANE('',#1023);
#892=PLANE('',#1024);
#893=ADVANCED_FACE('',(#42),#848,.T.);
#894=ADVANCED_FACE('',(#43),#849,.T.);
#895=ADVANCED_FACE('',(#44),#850,.T.);
#896=ADVANCED_FACE('',(#45),#851,.T.);
#897=ADVANCED_FACE('',(#46),#852,.T.);
#898=ADVANCED_FACE('',(#47),#853,.T.);
#899=ADVANCED_FACE('',(#48),#854,.T.);
#900=ADVANCED_FACE('',(#49),#855,.T.);
#901=ADVANCED_FACE('',(#50),#856,.T.);
#902=ADVANCED_FACE('',(#51),#857,.T.);
#903=ADVANCED_FACE('',(#52),#858,.T.);
#904=ADVANCED_FACE('',(#53),#859,.T.);
#905=ADVANCED_FACE('',(#54),#860,.T.);
#906=ADVANCED_FACE('',(#55),#861,.T.);
#907=ADVANCED_FACE('',(#56),#862,.T.);
#908=ADVANCED_FACE('',(#57),#863,.T.);
#909=ADVANCED_FACE('',(#58),#864,.T.);
#910=ADVANCED_FACE('',(#59),#865,.T.);
#911=ADVANCED_FACE('',(#60),#866,.T.);
#912=ADVANCED_FACE('',(#61),#867,.T.);
#913=ADVANCED_FACE('',(#62),#868,.T.);
#914=ADVANCED_FACE('',(#63,#36,#37),#869,.T.);
#915=ADVANCED_FACE('',(#64),#29,.F.);
#916=ADVANCED_FACE('',(#65),#30,.F.);
#917=ADVANCED_FACE('',(#66),#31,.F.);
#918=ADVANCED_FACE('',(#67),#32,.F.);
#919=ADVANCED_FACE('',(#68),#33,.F.);
#920=ADVANCED_FACE('',(#69),#34,.F.);
#921=ADVANCED_FACE('',(#70),#35,.F.);
#922=ADVANCED_FACE('',(#71),#870,.T.);
#923=ADVANCED_FACE('',(#72),#871,.T.);
#924=ADVANCED_FACE('',(#73),#872,.T.);
#925=ADVANCED_FACE('',(#74),#873,.T.);
#926=ADVANCED_FACE('',(#75),#874,.T.);
#927=ADVANCED_FACE('',(#76),#875,.T.);
#928=ADVANCED_FACE('',(#77),#876,.T.);
#929=ADVANCED_FACE('',(#78),#877,.F.);
#930=ADVANCED_FACE('',(#79),#878,.F.);
#931=ADVANCED_FACE('',(#80),#879,.F.);
#932=ADVANCED_FACE('',(#81),#880,.F.);
#933=ADVANCED_FACE('',(#82,#38),#881,.F.);
#934=ADVANCED_FACE('',(#83),#882,.T.);
#935=ADVANCED_FACE('',(#84),#883,.T.);
#936=ADVANCED_FACE('',(#85),#884,.F.);
#937=ADVANCED_FACE('',(#86),#885,.F.);
#938=ADVANCED_FACE('',(#87),#886,.F.);
#939=ADVANCED_FACE('',(#88),#887,.F.);
#940=ADVANCED_FACE('',(#89),#888,.T.);
#941=ADVANCED_FACE('',(#90),#889,.T.);
#942=ADVANCED_FACE('',(#91),#890,.T.);
#943=ADVANCED_FACE('',(#92),#891,.T.);
#944=ADVANCED_FACE('',(#93,#39,#40,#41),#892,.F.);
#945=CLOSED_SHELL('',(#893,#894,#895,#896,#897,#898,#899,#900,#901,#902,
#903,#904,#905,#906,#907,#908,#909,#910,#911,#912,#913,#914,#915,#916,#917,
#918,#919,#920,#921,#922,#923,#924,#925,#926,#927,#928,#929,#930,#931,#932,
#933,#934,#935,#936,#937,#938,#939,#940,#941,#942,#943,#944));
#946=DERIVED_UNIT_ELEMENT(#948,1.);
#947=DERIVED_UNIT_ELEMENT(#1543,-3.);
#948=(
MASS_UNIT()
NAMED_UNIT(*)
SI_UNIT(.KILO.,.GRAM.)
);
#949=DERIVED_UNIT((#946,#947));
#950=MEASURE_REPRESENTATION_ITEM('density measure',
POSITIVE_RATIO_MEASURE(7850.),#949);
#951=PROPERTY_DEFINITION_REPRESENTATION(#956,#953);
#952=PROPERTY_DEFINITION_REPRESENTATION(#957,#954);
#953=REPRESENTATION('material name',(#955),#1540);
#954=REPRESENTATION('density',(#950),#1540);
#955=DESCRIPTIVE_REPRESENTATION_ITEM('Steel','Steel');
#956=PROPERTY_DEFINITION('material property','material name',#1550);
#957=PROPERTY_DEFINITION('material property','density of part',#1550);
#958=AXIS2_PLACEMENT_3D('',#1273,#1025,#1026);
#959=AXIS2_PLACEMENT_3D('',#1274,#1027,#1028);
#960=AXIS2_PLACEMENT_3D('',#1283,#1033,#1034);
#961=AXIS2_PLACEMENT_3D('',#1289,#1038,#1039);
#962=AXIS2_PLACEMENT_3D('',#1295,#1043,#1044);
#963=AXIS2_PLACEMENT_3D('',#1298,#1047,#1048);
#964=AXIS2_PLACEMENT_3D('',#1299,#1049,#1050);
#965=AXIS2_PLACEMENT_3D('',#1308,#1055,#1056);
#966=AXIS2_PLACEMENT_3D('',#1314,#1060,#1061);
#967=AXIS2_PLACEMENT_3D('',#1320,#1065,#1066);
#968=AXIS2_PLACEMENT_3D('',#1323,#1069,#1070);
#969=AXIS2_PLACEMENT_3D('',#1324,#1071,#1072);
#970=AXIS2_PLACEMENT_3D('',#1333,#1077,#1078);
#971=AXIS2_PLACEMENT_3D('',#1339,#1082,#1083);
#972=AXIS2_PLACEMENT_3D('',#1345,#1087,#1088);
#973=AXIS2_PLACEMENT_3D('',#1348,#1091,#1092);
#974=AXIS2_PLACEMENT_3D('',#1349,#1093,#1094);
#975=AXIS2_PLACEMENT_3D('',#1358,#1099,#1100);
#976=AXIS2_PLACEMENT_3D('',#1364,#1104,#1105);
#977=AXIS2_PLACEMENT_3D('',#1370,#1109,#1110);
#978=AXIS2_PLACEMENT_3D('',#1373,#1113,#1114);
#979=AXIS2_PLACEMENT_3D('',#1379,#1118,#1119);
#980=AXIS2_PLACEMENT_3D('',#1383,#1122,#1123);
#981=AXIS2_PLACEMENT_3D('',#1400,#1132,#1133);
#982=AXIS2_PLACEMENT_3D('',#1405,#1135,#1136);
#983=AXIS2_PLACEMENT_3D('',#1408,#1138,#1139);
#984=AXIS2_PLACEMENT_3D('',#1409,#1140,#1141);
#985=AXIS2_PLACEMENT_3D('',#1414,#1143,#1144);
#986=AXIS2_PLACEMENT_3D('',#1417,#1146,#1147);
#987=AXIS2_PLACEMENT_3D('',#1418,#1148,#1149);
#988=AXIS2_PLACEMENT_3D('',#1423,#1151,#1152);
#989=AXIS2_PLACEMENT_3D('',#1426,#1154,#1155);
#990=AXIS2_PLACEMENT_3D('',#1427,#1156,#1157);
#991=AXIS2_PLACEMENT_3D('',#1432,#1159,#1160);
#992=AXIS2_PLACEMENT_3D('',#1435,#1162,#1163);
#993=AXIS2_PLACEMENT_3D('',#1436,#1164,#1165);
#994=AXIS2_PLACEMENT_3D('',#1441,#1167,#1168);
#995=AXIS2_PLACEMENT_3D('',#1444,#1170,#1171);
#996=AXIS2_PLACEMENT_3D('',#1445,#1172,#1173);
#997=AXIS2_PLACEMENT_3D('',#1450,#1175,#1176);
#998=AXIS2_PLACEMENT_3D('',#1453,#1178,#1179);
#999=AXIS2_PLACEMENT_3D('',#1454,#1180,#1181);
#1000=AXIS2_PLACEMENT_3D('',#1459,#1183,#1184);
#1001=AXIS2_PLACEMENT_3D('',#1462,#1186,#1187);
#1002=AXIS2_PLACEMENT_3D('',#1463,#1188,#1189);
#1003=AXIS2_PLACEMENT_3D('',#1469,#1193,#1194);
#1004=AXIS2_PLACEMENT_3D('',#1479,#1203,#1204);
#1005=AXIS2_PLACEMENT_3D('',#1481,#1206,#1207);
#1006=AXIS2_PLACEMENT_3D('',#1483,#1209,#1210);
#1007=AXIS2_PLACEMENT_3D('',#1485,#1212,#1213);
#1008=AXIS2_PLACEMENT_3D('',#1487,#1215,#1216);
#1009=AXIS2_PLACEMENT_3D('',#1489,#1218,#1219);
#1010=AXIS2_PLACEMENT_3D('',#1495,#1223,#1224);
#1011=AXIS2_PLACEMENT_3D('',#1499,#1227,#1228);
#1012=AXIS2_PLACEMENT_3D('',#1503,#1231,#1232);
#1013=AXIS2_PLACEMENT_3D('',#1505,#1234,#1235);
#1014=AXIS2_PLACEMENT_3D('',#1509,#1238,#1239);
#1015=AXIS2_PLACEMENT_3D('',#1511,#1241,#1242);
#1016=AXIS2_PLACEMENT_3D('',#1517,#1246,#1247);
#1017=AXIS2_PLACEMENT_3D('',#1521,#1250,#1251);
#1018=AXIS2_PLACEMENT_3D('',#1525,#1254,#1255);
#1019=AXIS2_PLACEMENT_3D('',#1527,#1257,#1258);
#1020=AXIS2_PLACEMENT_3D('',#1528,#1259,#1260);
#1021=AXIS2_PLACEMENT_3D('',#1530,#1262,#1263);
#1022=AXIS2_PLACEMENT_3D('',#1531,#1264,#1265);
#1023=AXIS2_PLACEMENT_3D('',#1535,#1268,#1269);
#1024=AXIS2_PLACEMENT_3D('',#1537,#1271,#1272);
#1025=DIRECTION('axis',(0.,0.,1.));
#1026=DIRECTION('refdir',(1.,0.,0.));
#1027=DIRECTION('center_axis',(-1.,0.,0.));
#1028=DIRECTION('ref_axis',(0.,1.,0.));
#1029=DIRECTION('',(0.,-1.,0.));
#1030=DIRECTION('',(0.,0.,-1.));
#1031=DIRECTION('',(0.,1.,0.));
#1032=DIRECTION('',(0.,0.,-1.));
#1033=DIRECTION('center_axis',(0.,-1.,0.));
#1034=DIRECTION('ref_axis',(-1.,0.,0.));
#1035=DIRECTION('',(1.,0.,0.));
#1036=DIRECTION('',(-1.,0.,0.));
#1037=DIRECTION('',(0.,0.,-1.));
#1038=DIRECTION('center_axis',(1.,0.,0.));
#1039=DIRECTION('ref_axis',(0.,-1.,0.));
#1040=DIRECTION('',(0.,1.,0.));
#1041=DIRECTION('',(0.,-1.,0.));
#1042=DIRECTION('',(0.,0.,-1.));
#1043=DIRECTION('center_axis',(0.,1.,0.));
#1044=DIRECTION('ref_axis',(1.,0.,0.));
#1045=DIRECTION('',(-1.,0.,0.));
#1046=DIRECTION('',(1.,0.,0.));
#1047=DIRECTION('center_axis',(0.,0.,-1.));
#1048=DIRECTION('ref_axis',(-1.,0.,0.));
#1049=DIRECTION('center_axis',(0.,1.,0.));
#1050=DIRECTION('ref_axis',(1.,0.,0.));
#1051=DIRECTION('',(-1.,0.,0.));
#1052=DIRECTION('',(0.,0.,-1.));
#1053=DIRECTION('',(1.,0.,0.));
#1054=DIRECTION('',(0.,0.,-1.));
#1055=DIRECTION('center_axis',(-1.,0.,0.));
#1056=DIRECTION('ref_axis',(0.,1.,0.));
#1057=DIRECTION('',(0.,-1.,0.));
#1058=DIRECTION('',(0.,1.,0.));
#1059=DIRECTION('',(0.,0.,-1.));
#1060=DIRECTION('center_axis',(0.,-1.,0.));
#1061=DIRECTION('ref_axis',(-1.,0.,0.));
#1062=DIRECTION('',(1.,0.,0.));
#1063=DIRECTION('',(-1.,0.,0.));
#1064=DIRECTION('',(0.,0.,-1.));
#1065=DIRECTION('center_axis',(1.,0.,0.));
#1066=DIRECTION('ref_axis',(0.,-1.,0.));
#1067=DIRECTION('',(0.,1.,0.));
#1068=DIRECTION('',(0.,-1.,0.));
#1069=DIRECTION('center_axis',(0.,0.,-1.));
#1070=DIRECTION('ref_axis',(-1.,0.,0.));
#1071=DIRECTION('center_axis',(-1.,0.,0.));
#1072=DIRECTION('ref_axis',(0.,1.,0.));
#1073=DIRECTION('',(0.,-1.,0.));
#1074=DIRECTION('',(0.,0.,-1.));
#1075=DIRECTION('',(0.,1.,0.));
#1076=DIRECTION('',(0.,0.,-1.));
#1077=DIRECTION('center_axis',(0.,-1.,0.));
#1078=DIRECTION('ref_axis',(-1.,0.,0.));
#1079=DIRECTION('',(1.,0.,0.));
#1080=DIRECTION('',(-1.,0.,0.));
#1081=DIRECTION('',(0.,0.,-1.));
#1082=DIRECTION('center_axis',(1.,0.,0.));
#1083=DIRECTION('ref_axis',(0.,-1.,0.));
#1084=DIRECTION('',(0.,1.,0.));
#1085=DIRECTION('',(0.,-1.,0.));
#1086=DIRECTION('',(0.,0.,-1.));
#1087=DIRECTION('center_axis',(0.,1.,0.));
#1088=DIRECTION('ref_axis',(1.,0.,0.));
#1089=DIRECTION('',(-1.,0.,0.));
#1090=DIRECTION('',(1.,0.,0.));
#1091=DIRECTION('center_axis',(0.,0.,-1.));
#1092=DIRECTION('ref_axis',(-1.,0.,0.));
#1093=DIRECTION('center_axis',(0.,0.707106781186548,0.707106781186548));
#1094=DIRECTION('ref_axis',(1.,0.,0.));
#1095=DIRECTION('',(1.,0.,0.));
#1096=DIRECTION('',(0.577350269189625,0.577350269189628,-0.577350269189625));
#1097=DIRECTION('',(-1.,0.,0.));
#1098=DIRECTION('',(-0.577350269189625,0.577350269189626,-0.577350269189626));
#1099=DIRECTION('center_axis',(0.707106781186548,0.,0.707106781186548));
#1100=DIRECTION('ref_axis',(0.707106781186548,0.,-0.707106781186548));
#1101=DIRECTION('',(0.,-1.,0.));
#1102=DIRECTION('',(0.577350269189625,-0.577350269189626,-0.577350269189626));
#1103=DIRECTION('',(0.,1.,0.));
#1104=DIRECTION('center_axis',(0.,-0.707106781186548,0.707106781186548));
#1105=DIRECTION('ref_axis',(1.,0.,0.));
#1106=DIRECTION('',(-1.,0.,0.));
#1107=DIRECTION('',(-0.577350269189625,-0.577350269189628,-0.577350269189625));
#1108=DIRECTION('',(1.,0.,0.));
#1109=DIRECTION('center_axis',(-0.707106781186548,0.,0.707106781186548));
#1110=DIRECTION('ref_axis',(0.707106781186548,0.,0.707106781186548));
#1111=DIRECTION('',(0.,-1.,0.));
#1112=DIRECTION('',(0.,1.,0.));
#1113=DIRECTION('center_axis',(-1.,0.,0.));
#1114=DIRECTION('ref_axis',(0.,-1.,0.));
#1115=DIRECTION('',(0.,0.,1.));
#1116=DIRECTION('',(0.,1.,0.));
#1117=DIRECTION('',(0.,0.,1.));
#1118=DIRECTION('center_axis',(0.,1.,0.));
#1119=DIRECTION('ref_axis',(-1.,0.,0.));
#1120=DIRECTION('',(0.,0.,1.));
#1121=DIRECTION('',(1.,0.,0.));
#1122=DIRECTION('center_axis',(0.,0.,1.));
#1123=DIRECTION('ref_axis',(1.,0.,0.));
#1124=DIRECTION('',(1.,0.,0.));
#1125=DIRECTION('',(0.,-1.,0.));
#1126=DIRECTION('',(-1.,0.,0.));
#1127=DIRECTION('',(0.,1.,0.));
#1128=DIRECTION('',(0.,1.,0.));
#1129=DIRECTION('',(1.,0.,0.));
#1130=DIRECTION('',(0.,-1.,0.));
#1131=DIRECTION('',(1.,0.,0.));
#1132=DIRECTION('center_axis',(-1.,0.,0.));
#1133=DIRECTION('ref_axis',(0.,1.,0.));
#1134=DIRECTION('',(1.,0.,0.));
#1135=DIRECTION('center_axis',(1.,0.,0.));
#1136=DIRECTION('ref_axis',(0.,1.,0.));
#1137=DIRECTION('',(-1.,0.,0.));
#1138=DIRECTION('center_axis',(-1.,0.,0.));
#1139=DIRECTION('ref_axis',(0.,1.,0.));
#1140=DIRECTION('center_axis',(-1.,0.,0.));
#1141=DIRECTION('ref_axis',(0.,1.,0.));
#1142=DIRECTION('',(1.,0.,0.));
#1143=DIRECTION('center_axis',(1.,0.,0.));
#1144=DIRECTION('ref_axis',(0.,1.,0.));
#1145=DIRECTION('',(-1.,0.,0.));
#1146=DIRECTION('center_axis',(-1.,0.,0.));
#1147=DIRECTION('ref_axis',(0.,1.,0.));
#1148=DIRECTION('center_axis',(-1.,0.,0.));
#1149=DIRECTION('ref_axis',(0.,1.,0.));
#1150=DIRECTION('',(1.,0.,0.));
#1151=DIRECTION('center_axis',(1.,0.,0.));
#1152=DIRECTION('ref_axis',(0.,1.,0.));
#1153=DIRECTION('',(-1.,0.,0.));
#1154=DIRECTION('center_axis',(-1.,0.,0.));
#1155=DIRECTION('ref_axis',(0.,1.,0.));
#1156=DIRECTION('center_axis',(-1.,0.,0.));
#1157=DIRECTION('ref_axis',(0.,1.,0.));
#1158=DIRECTION('',(-1.,0.,0.));
#1159=DIRECTION('center_axis',(-1.,0.,0.));
#1160=DIRECTION('ref_axis',(0.,1.,0.));
#1161=DIRECTION('',(1.,0.,0.));
#1162=DIRECTION('center_axis',(1.,0.,0.));
#1163=DIRECTION('ref_axis',(0.,1.,0.));
#1164=DIRECTION('center_axis',(-1.,0.,0.));
#1165=DIRECTION('ref_axis',(0.,1.,0.));
#1166=DIRECTION('',(1.,0.,0.));
#1167=DIRECTION('center_axis',(1.,0.,0.));
#1168=DIRECTION('ref_axis',(0.,1.,0.));
#1169=DIRECTION('',(-1.,0.,0.));
#1170=DIRECTION('center_axis',(-1.,0.,0.));
#1171=DIRECTION('ref_axis',(0.,1.,0.));
#1172=DIRECTION('center_axis',(-1.,0.,0.));
#1173=DIRECTION('ref_axis',(0.,1.,0.));
#1174=DIRECTION('',(1.,0.,0.));
#1175=DIRECTION('center_axis',(1.,0.,0.));
#1176=DIRECTION('ref_axis',(0.,1.,0.));
#1177=DIRECTION('',(-1.,0.,0.));
#1178=DIRECTION('center_axis',(-1.,0.,0.));
#1179=DIRECTION('ref_axis',(0.,1.,0.));
#1180=DIRECTION('center_axis',(-1.,0.,0.));
#1181=DIRECTION('ref_axis',(0.,1.,0.));
#1182=DIRECTION('',(1.,0.,0.));
#1183=DIRECTION('center_axis',(1.,0.,0.));
#1184=DIRECTION('ref_axis',(0.,1.,0.));
#1185=DIRECTION('',(-1.,0.,0.));
#1186=DIRECTION('center_axis',(-1.,0.,0.));
#1187=DIRECTION('ref_axis',(0.,1.,0.));
#1188=DIRECTION('center_axis',(0.,1.,0.));
#1189=DIRECTION('ref_axis',(-1.,0.,0.));
#1190=DIRECTION('',(0.,0.,1.));
#1191=DIRECTION('',(-1.,0.,0.));
#1192=DIRECTION('',(0.,0.,1.));
#1193=DIRECTION('center_axis',(1.,0.,0.));
#1194=DIRECTION('ref_axis',(0.,1.,0.));
#1195=DIRECTION('',(0.,1.,0.));
#1196=DIRECTION('',(0.,1.,0.));
#1197=DIRECTION('',(0.,1.,0.));
#1198=DIRECTION('',(0.,1.,0.));
#1199=DIRECTION('',(0.,0.,1.));
#1200=DIRECTION('',(0.,1.,0.));
#1201=DIRECTION('',(0.,1.,0.));
#1202=DIRECTION('',(0.,1.,0.));
#1203=DIRECTION('center_axis',(0.,0.,1.));
#1204=DIRECTION('ref_axis',(1.,0.,0.));
#1205=DIRECTION('',(0.,-1.,0.));
#1206=DIRECTION('center_axis',(0.,0.,1.));
#1207=DIRECTION('ref_axis',(1.,0.,0.));
#1208=DIRECTION('',(0.,-1.,0.));
#1209=DIRECTION('center_axis',(0.,0.,1.));
#1210=DIRECTION('ref_axis',(1.,0.,0.));
#1211=DIRECTION('',(0.,-1.,0.));
#1212=DIRECTION('center_axis',(0.,0.,1.));
#1213=DIRECTION('ref_axis',(1.,0.,0.));
#1214=DIRECTION('',(0.,-1.,0.));
#1215=DIRECTION('center_axis',(0.,0.,1.));
#1216=DIRECTION('ref_axis',(1.,0.,0.));
#1217=DIRECTION('',(0.,-1.,0.));
#1218=DIRECTION('center_axis',(1.,0.,0.));
#1219=DIRECTION('ref_axis',(0.,1.,0.));
#1220=DIRECTION('',(0.,0.,1.));
#1221=DIRECTION('',(0.,1.,0.));
#1222=DIRECTION('',(0.,0.,1.));
#1223=DIRECTION('center_axis',(0.,1.,0.));
#1224=DIRECTION('ref_axis',(-1.,0.,0.));
#1225=DIRECTION('',(0.,0.,1.));
#1226=DIRECTION('',(-1.,0.,0.));
#1227=DIRECTION('center_axis',(-1.,0.,0.));
#1228=DIRECTION('ref_axis',(0.,-1.,0.));
#1229=DIRECTION('',(0.,0.,1.));
#1230=DIRECTION('',(0.,-1.,0.));
#1231=DIRECTION('center_axis',(0.,-1.,0.));
#1232=DIRECTION('ref_axis',(1.,0.,0.));
#1233=DIRECTION('',(1.,0.,0.));
#1234=DIRECTION('center_axis',(0.,0.,1.));
#1235=DIRECTION('ref_axis',(1.,0.,0.));
#1236=DIRECTION('',(1.,0.,0.));
#1237=DIRECTION('',(0.,-1.,0.));
#1238=DIRECTION('center_axis',(0.,-1.,0.));
#1239=DIRECTION('ref_axis',(1.,0.,0.));
#1240=DIRECTION('',(0.,0.,1.));
#1241=DIRECTION('center_axis',(0.,1.,0.));
#1242=DIRECTION('ref_axis',(-1.,0.,0.));
#1243=DIRECTION('',(0.,0.,-1.));
#1244=DIRECTION('',(-1.,0.,0.));
#1245=DIRECTION('',(0.,0.,-1.));
#1246=DIRECTION('center_axis',(1.,0.,0.));
#1247=DIRECTION('ref_axis',(0.,-1.,0.));
#1248=DIRECTION('',(0.,0.,-1.));
#1249=DIRECTION('',(0.,-1.,0.));
#1250=DIRECTION('center_axis',(0.,1.,0.));
#1251=DIRECTION('ref_axis',(1.,0.,0.));
#1252=DIRECTION('',(0.,0.,-1.));
#1253=DIRECTION('',(1.,0.,0.));
#1254=DIRECTION('center_axis',(-1.,0.,0.));
#1255=DIRECTION('ref_axis',(0.,1.,0.));
#1256=DIRECTION('',(0.,1.,0.));
#1257=DIRECTION('center_axis',(0.,0.,-1.));
#1258=DIRECTION('ref_axis',(-1.,0.,0.));
#1259=DIRECTION('center_axis',(-1.,0.,0.));
#1260=DIRECTION('ref_axis',(0.,-1.,0.));
#1261=DIRECTION('',(0.,-1.,0.));
#1262=DIRECTION('center_axis',(0.,0.,1.));
#1263=DIRECTION('ref_axis',(1.,0.,0.));
#1264=DIRECTION('center_axis',(1.,0.,0.));
#1265=DIRECTION('ref_axis',(0.,1.,0.));
#1266=DIRECTION('',(0.,0.,1.));
#1267=DIRECTION('',(0.,-1.,0.));
#1268=DIRECTION('center_axis',(0.,-1.,0.));
#1269=DIRECTION('ref_axis',(1.,0.,0.));
#1270=DIRECTION('',(-1.,0.,0.));
#1271=DIRECTION('center_axis',(0.,0.,1.));
#1272=DIRECTION('ref_axis',(1.,0.,0.));
#1273=CARTESIAN_POINT('',(0.,0.,0.));
#1274=CARTESIAN_POINT('Origin',(-0.15,2.25,0.));
#1275=CARTESIAN_POINT('',(-0.15,2.75,0.));
#1276=CARTESIAN_POINT('',(-0.15,2.25,0.));
#1277=CARTESIAN_POINT('',(-0.15,1.125,0.));
#1278=CARTESIAN_POINT('',(-0.15,2.75,-3.));
#1279=CARTESIAN_POINT('',(-0.15,2.75,0.));
#1280=CARTESIAN_POINT('',(-0.15,2.25,-3.));
#1281=CARTESIAN_POINT('',(-0.15,2.25,-3.));
#1282=CARTESIAN_POINT('',(-0.15,2.25,0.));
#1283=CARTESIAN_POINT('Origin',(0.15,2.25,0.));
#1284=CARTESIAN_POINT('',(0.15,2.25,0.));
#1285=CARTESIAN_POINT('',(0.075,2.25,0.));
#1286=CARTESIAN_POINT('',(0.15,2.25,-3.));
#1287=CARTESIAN_POINT('',(0.15,2.25,-3.));
#1288=CARTESIAN_POINT('',(0.15,2.25,0.));
#1289=CARTESIAN_POINT('Origin',(0.15,2.75,0.));
#1290=CARTESIAN_POINT('',(0.15,2.75,0.));
#1291=CARTESIAN_POINT('',(0.15,1.375,0.));
#1292=CARTESIAN_POINT('',(0.15,2.75,-3.));
#1293=CARTESIAN_POINT('',(0.15,2.75,-3.));
#1294=CARTESIAN_POINT('',(0.15,2.75,0.));
#1295=CARTESIAN_POINT('Origin',(-0.15,2.75,0.));
#1296=CARTESIAN_POINT('',(-0.075,2.75,0.));
#1297=CARTESIAN_POINT('',(-0.15,2.75,-3.));
#1298=CARTESIAN_POINT('Origin',(0.,2.5,-3.));
#1299=CARTESIAN_POINT('Origin',(-0.15,0.25,0.));
#1300=CARTESIAN_POINT('',(0.15,0.25,0.));
#1301=CARTESIAN_POINT('',(-0.15,0.25,0.));
#1302=CARTESIAN_POINT('',(-0.075,0.25,0.));
#1303=CARTESIAN_POINT('',(0.15,0.25,-3.));
#1304=CARTESIAN_POINT('',(0.15,0.25,0.));
#1305=CARTESIAN_POINT('',(-0.15,0.25,-3.));
#1306=CARTESIAN_POINT('',(-0.15,0.25,-3.));
#1307=CARTESIAN_POINT('',(-0.15,0.25,0.));
#1308=CARTESIAN_POINT('Origin',(-0.15,-0.25,0.));
#1309=CARTESIAN_POINT('',(-0.15,-0.25,0.));
#1310=CARTESIAN_POINT('',(-0.15,-0.125,0.));
#1311=CARTESIAN_POINT('',(-0.15,-0.25,-3.));
#1312=CARTESIAN_POINT('',(-0.15,-0.25,-3.));
#1313=CARTESIAN_POINT('',(-0.15,-0.25,0.));
#1314=CARTESIAN_POINT('Origin',(0.15,-0.25,0.));
#1315=CARTESIAN_POINT('',(0.15,-0.25,0.));
#1316=CARTESIAN_POINT('',(0.075,-0.25,0.));
#1317=CARTESIAN_POINT('',(0.15,-0.25,-3.));
#1318=CARTESIAN_POINT('',(0.15,-0.25,-3.));
#1319=CARTESIAN_POINT('',(0.15,-0.25,0.));
#1320=CARTESIAN_POINT('Origin',(0.15,0.25,0.));
#1321=CARTESIAN_POINT('',(0.15,0.125,0.));
#1322=CARTESIAN_POINT('',(0.15,0.25,-3.));
#1323=CARTESIAN_POINT('Origin',(0.,0.,-3.));
#1324=CARTESIAN_POINT('Origin',(-0.15,-2.75,0.));
#1325=CARTESIAN_POINT('',(-0.15,-2.25,0.));
#1326=CARTESIAN_POINT('',(-0.15,-2.75,0.));
#1327=CARTESIAN_POINT('',(-0.15,-1.375,0.));
#1328=CARTESIAN_POINT('',(-0.15,-2.25,-3.));
#1329=CARTESIAN_POINT('',(-0.15,-2.25,0.));
#1330=CARTESIAN_POINT('',(-0.15,-2.75,-3.));
#1331=CARTESIAN_POINT('',(-0.15,-2.75,-3.));
#1332=CARTESIAN_POINT('',(-0.15,-2.75,0.));
#1333=CARTESIAN_POINT('Origin',(0.15,-2.75,0.));
#1334=CARTESIAN_POINT('',(0.15,-2.75,0.));
#1335=CARTESIAN_POINT('',(0.075,-2.75,0.));
#1336=CARTESIAN_POINT('',(0.15,-2.75,-3.));
#1337=CARTESIAN_POINT('',(0.15,-2.75,-3.));
#1338=CARTESIAN_POINT('',(0.15,-2.75,0.));
#1339=CARTESIAN_POINT('Origin',(0.15,-2.25,0.));
#1340=CARTESIAN_POINT('',(0.15,-2.25,0.));
#1341=CARTESIAN_POINT('',(0.15,-1.125,0.));
#1342=CARTESIAN_POINT('',(0.15,-2.25,-3.));
#1343=CARTESIAN_POINT('',(0.15,-2.25,-3.));
#1344=CARTESIAN_POINT('',(0.15,-2.25,0.));
#1345=CARTESIAN_POINT('Origin',(-0.15,-2.25,0.));
#1346=CARTESIAN_POINT('',(-0.075,-2.25,0.));
#1347=CARTESIAN_POINT('',(-0.15,-2.25,-3.));
#1348=CARTESIAN_POINT('Origin',(0.,-2.5,-3.));
#1349=CARTESIAN_POINT('Origin',(0.975,4.35,3.45));
#1350=CARTESIAN_POINT('',(-1.85,4.3,3.5));
#1351=CARTESIAN_POINT('',(1.85,4.3,3.5));
#1352=CARTESIAN_POINT('',(0.975,4.3,3.5));
#1353=CARTESIAN_POINT('',(1.95,4.4,3.4));
#1354=CARTESIAN_POINT('',(1.85,4.3,3.5));
#1355=CARTESIAN_POINT('',(-1.95,4.4,3.4));
#1356=CARTESIAN_POINT('',(0.975,4.4,3.4));
#1357=CARTESIAN_POINT('',(-1.85,4.3,3.5));
#1358=CARTESIAN_POINT('Origin',(1.9,-2.2,3.45));
#1359=CARTESIAN_POINT('',(1.85,-4.3,3.5));
#1360=CARTESIAN_POINT('',(1.85,-2.2,3.5));
#1361=CARTESIAN_POINT('',(1.95,-4.4,3.4));
#1362=CARTESIAN_POINT('',(1.85,-4.3,3.5));
#1363=CARTESIAN_POINT('',(1.95,-2.2,3.4));
#1364=CARTESIAN_POINT('Origin',(-0.975,-4.35,3.45));
#1365=CARTESIAN_POINT('',(-1.85,-4.3,3.5));
#1366=CARTESIAN_POINT('',(-0.975,-4.3,3.5));
#1367=CARTESIAN_POINT('',(-1.95,-4.4,3.4));
#1368=CARTESIAN_POINT('',(-1.85,-4.3,3.5));
#1369=CARTESIAN_POINT('',(-0.975,-4.4,3.4));
#1370=CARTESIAN_POINT('Origin',(-1.9,2.2,3.45));
#1371=CARTESIAN_POINT('',(-1.95,2.2,3.4));
#1372=CARTESIAN_POINT('',(-1.85,2.2,3.5));
#1373=CARTESIAN_POINT('Origin',(-1.95,4.4,0.));
#1374=CARTESIAN_POINT('',(-1.95,4.4,0.));
#1375=CARTESIAN_POINT('',(-1.95,4.4,0.));
#1376=CARTESIAN_POINT('',(-1.95,-4.4,0.));
#1377=CARTESIAN_POINT('',(-1.95,-4.4,0.));
#1378=CARTESIAN_POINT('',(-1.95,-4.4,0.));
#1379=CARTESIAN_POINT('Origin',(1.95,4.4,0.));
#1380=CARTESIAN_POINT('',(1.95,4.4,0.));
#1381=CARTESIAN_POINT('',(1.95,4.4,0.));
#1382=CARTESIAN_POINT('',(-1.95,4.4,0.));
#1383=CARTESIAN_POINT('Origin',(0.,0.,3.5));
#1384=CARTESIAN_POINT('',(-0.399999991059303,-0.55,3.5));
#1385=CARTESIAN_POINT('',(0.399999991059303,-0.55,3.5));
#1386=CARTESIAN_POINT('',(-0.399999991059303,-0.55,3.5));
#1387=CARTESIAN_POINT('',(0.399999991059303,-1.35,3.5));
#1388=CARTESIAN_POINT('',(0.399999991059303,-0.55,3.5));
#1389=CARTESIAN_POINT('',(-0.399999991059303,-1.35,3.5));
#1390=CARTESIAN_POINT('',(0.399999991059303,-1.35,3.5));
#1391=CARTESIAN_POINT('',(-0.399999991059303,-1.35,3.5));
#1392=CARTESIAN_POINT('',(-0.399999991059303,-0.199999995529652,3.5));
#1393=CARTESIAN_POINT('',(-0.399999991059303,1.79999995976686,3.5));
#1394=CARTESIAN_POINT('',(-0.399999991059303,-0.0999999977648258,3.5));
#1395=CARTESIAN_POINT('',(0.399999991059303,1.79999995976686,3.5));
#1396=CARTESIAN_POINT('',(-0.199999995529652,1.8,3.5));
#1397=CARTESIAN_POINT('',(0.399999991059303,-0.199999995529652,3.5));
#1398=CARTESIAN_POINT('',(0.399999991059303,0.899999979883432,3.5));
#1399=CARTESIAN_POINT('',(0.375,-0.2,3.5));
#1400=CARTESIAN_POINT('Origin',(0.75,-0.683333333333334,6.5));
#1401=CARTESIAN_POINT('',(-0.75,-0.583333314334247,6.5));
#1402=CARTESIAN_POINT('',(0.75,-0.583333314334247,6.5));
#1403=CARTESIAN_POINT('',(0.75,-0.583333314334247,6.5));
#1404=CARTESIAN_POINT('',(-0.75,-0.78333335233242,6.5));
#1405=CARTESIAN_POINT('Origin',(-0.75,-0.683333333333334,6.5));
#1406=CARTESIAN_POINT('',(0.75,-0.78333335233242,6.5));
#1407=CARTESIAN_POINT('',(0.75,-0.78333335233242,6.5));
#1408=CARTESIAN_POINT('Origin',(0.75,-0.683333333333334,6.5));
#1409=CARTESIAN_POINT('Origin',(0.75,-0.416666666666667,6.5));
#1410=CARTESIAN_POINT('',(-0.75,-0.316666647667581,6.5));
#1411=CARTESIAN_POINT('',(0.75,-0.316666647667581,6.5));
#1412=CARTESIAN_POINT('',(0.75,-0.316666647667581,6.5));
#1413=CARTESIAN_POINT('',(-0.75,-0.516666685665753,6.5));
#1414=CARTESIAN_POINT('Origin',(-0.75,-0.416666666666667,6.5));
#1415=CARTESIAN_POINT('',(0.75,-0.516666685665753,6.5));
#1416=CARTESIAN_POINT('',(0.75,-0.516666685665753,6.5));
#1417=CARTESIAN_POINT('Origin',(0.75,-0.416666666666667,6.5));
#1418=CARTESIAN_POINT('Origin',(0.75,-1.75,6.5));
#1419=CARTESIAN_POINT('',(-0.75,-1.64999998100091,6.5));
#1420=CARTESIAN_POINT('',(0.75,-1.64999998100091,6.5));
#1421=CARTESIAN_POINT('',(0.75,-1.64999998100091,6.5));
#1422=CARTESIAN_POINT('',(-0.75,-1.7,6.4133974376833));
#1423=CARTESIAN_POINT('Origin',(-0.75,-1.75,6.5));
#1424=CARTESIAN_POINT('',(0.75,-1.7,6.4133974376833));
#1425=CARTESIAN_POINT('',(0.75,-1.7,6.4133974376833));
#1426=CARTESIAN_POINT('Origin',(0.75,-1.75,6.5));
#1427=CARTESIAN_POINT('Origin',(0.75,-0.15,6.5));
#1428=CARTESIAN_POINT('',(0.75,-0.250000018999086,6.5));
#1429=CARTESIAN_POINT('',(-0.75,-0.250000018999086,6.5));
#1430=CARTESIAN_POINT('',(0.75,-0.250000018999086,6.5));
#1431=CARTESIAN_POINT('',(0.75,-0.2,6.4133974376833));
#1432=CARTESIAN_POINT('Origin',(0.75,-0.15,6.5));
#1433=CARTESIAN_POINT('',(-0.75,-0.2,6.4133974376833));
#1434=CARTESIAN_POINT('',(0.75,-0.2,6.4133974376833));
#1435=CARTESIAN_POINT('Origin',(-0.75,-0.15,6.5));
#1436=CARTESIAN_POINT('Origin',(0.75,-0.95,6.5));
#1437=CARTESIAN_POINT('',(-0.75,-0.849999981000914,6.5));
#1438=CARTESIAN_POINT('',(0.75,-0.849999981000914,6.5));
#1439=CARTESIAN_POINT('',(0.75,-0.849999981000914,6.5));
#1440=CARTESIAN_POINT('',(-0.75,-1.05000001899909,6.5));
#1441=CARTESIAN_POINT('Origin',(-0.75,-0.95,6.5));
#1442=CARTESIAN_POINT('',(0.75,-1.05000001899909,6.5));
#1443=CARTESIAN_POINT('',(0.75,-1.05000001899909,6.5));
#1444=CARTESIAN_POINT('Origin',(0.75,-0.95,6.5));
#1445=CARTESIAN_POINT('Origin',(0.75,-1.21666666666667,6.5));
#1446=CARTESIAN_POINT('',(-0.75,-1.11666664766758,6.5));
#1447=CARTESIAN_POINT('',(0.75,-1.11666664766758,6.5));
#1448=CARTESIAN_POINT('',(0.75,-1.11666664766758,6.5));
#1449=CARTESIAN_POINT('',(-0.75,-1.31666668566575,6.5));
#1450=CARTESIAN_POINT('Origin',(-0.75,-1.21666666666667,6.5));
#1451=CARTESIAN_POINT('',(0.75,-1.31666668566575,6.5));
#1452=CARTESIAN_POINT('',(0.75,-1.31666668566575,6.5));
#1453=CARTESIAN_POINT('Origin',(0.75,-1.21666666666667,6.5));
#1454=CARTESIAN_POINT('Origin',(0.75,-1.48333333333333,6.5));
#1455=CARTESIAN_POINT('',(-0.75,-1.38333331433425,6.5));
#1456=CARTESIAN_POINT('',(0.75,-1.38333331433425,6.5));
#1457=CARTESIAN_POINT('',(0.75,-1.38333331433425,6.5));
#1458=CARTESIAN_POINT('',(-0.75,-1.58333335233242,6.5));
#1459=CARTESIAN_POINT('Origin',(-0.75,-1.48333333333333,6.5));
#1460=CARTESIAN_POINT('',(0.75,-1.58333335233242,6.5));
#1461=CARTESIAN_POINT('',(0.75,-1.58333335233242,6.5));
#1462=CARTESIAN_POINT('Origin',(0.75,-1.48333333333333,6.5));
#1463=CARTESIAN_POINT('Origin',(0.75,-0.2,3.5));
#1464=CARTESIAN_POINT('',(0.75,-0.2,3.7));
#1465=CARTESIAN_POINT('',(0.75,-0.2,3.5));
#1466=CARTESIAN_POINT('',(-0.75,-0.2,3.7));
#1467=CARTESIAN_POINT('',(0.375,-0.2,3.7));
#1468=CARTESIAN_POINT('',(-0.75,-0.2,3.5));
#1469=CARTESIAN_POINT('Origin',(0.75,-1.7,3.5));
#1470=CARTESIAN_POINT('',(0.75,-0.2,6.5));
#1471=CARTESIAN_POINT('',(0.75,-0.2,6.5));
#1472=CARTESIAN_POINT('',(0.75,-0.2,6.5));
#1473=CARTESIAN_POINT('',(0.75,-0.2,6.5));
#1474=CARTESIAN_POINT('',(0.75,-1.7,3.7));
#1475=CARTESIAN_POINT('',(0.75,-1.7,3.5));
#1476=CARTESIAN_POINT('',(0.75,-1.32499999888241,3.7));
#1477=CARTESIAN_POINT('',(0.75,-0.2,6.5));
#1478=CARTESIAN_POINT('',(0.75,-0.2,6.5));
#1479=CARTESIAN_POINT('Origin',(0.,-0.95,6.5));
#1480=CARTESIAN_POINT('',(-0.75,-1.7,6.5));
#1481=CARTESIAN_POINT('Origin',(0.,-0.95,6.5));
#1482=CARTESIAN_POINT('',(-0.75,-1.7,6.5));
#1483=CARTESIAN_POINT('Origin',(0.,-0.95,6.5));
#1484=CARTESIAN_POINT('',(-0.75,-1.7,6.5));
#1485=CARTESIAN_POINT('Origin',(0.,-0.95,6.5));
#1486=CARTESIAN_POINT('',(-0.75,-1.7,6.5));
#1487=CARTESIAN_POINT('Origin',(0.,-0.95,6.5));
#1488=CARTESIAN_POINT('',(-0.75,-1.7,6.5));
#1489=CARTESIAN_POINT('Origin',(-0.399999991059303,-1.35,3.5));
#1490=CARTESIAN_POINT('',(-0.399999991059303,-1.35,3.7));
#1491=CARTESIAN_POINT('',(-0.399999991059303,-1.35,3.5));
#1492=CARTESIAN_POINT('',(-0.399999991059303,-0.55,3.7));
#1493=CARTESIAN_POINT('',(-0.399999991059303,-1.35,3.7));
#1494=CARTESIAN_POINT('',(-0.399999991059303,-0.55,3.5));
#1495=CARTESIAN_POINT('Origin',(0.399999991059303,-1.35,3.5));
#1496=CARTESIAN_POINT('',(0.399999991059303,-1.35,3.7));
#1497=CARTESIAN_POINT('',(0.399999991059303,-1.35,3.5));
#1498=CARTESIAN_POINT('',(0.399999991059303,-1.35,3.7));
#1499=CARTESIAN_POINT('Origin',(0.399999991059303,-0.55,3.5));
#1500=CARTESIAN_POINT('',(0.399999991059303,-0.55,3.7));
#1501=CARTESIAN_POINT('',(0.399999991059303,-0.55,3.5));
#1502=CARTESIAN_POINT('',(0.399999991059303,-0.55,3.7));
#1503=CARTESIAN_POINT('Origin',(-0.399999991059303,-0.55,3.5));
#1504=CARTESIAN_POINT('',(-0.399999991059303,-0.55,3.7));
#1505=CARTESIAN_POINT('Origin',(0.,-0.949999997764826,3.7));
#1506=CARTESIAN_POINT('',(-0.75,-1.7,3.7));
#1507=CARTESIAN_POINT('',(-0.375,-1.7,3.7));
#1508=CARTESIAN_POINT('',(-0.75,-0.574999998882413,3.7));
#1509=CARTESIAN_POINT('Origin',(-0.75,-1.7,3.5));
#1510=CARTESIAN_POINT('',(-0.75,-1.7,3.5));
#1511=CARTESIAN_POINT('Origin',(0.75,-0.2,3.5));
#1512=CARTESIAN_POINT('',(0.399999991059303,-0.199999995529652,3.3));
#1513=CARTESIAN_POINT('',(0.399999991059303,-0.199999995529652,3.5));
#1514=CARTESIAN_POINT('',(-0.399999991059303,-0.199999995529652,3.3));
#1515=CARTESIAN_POINT('',(-0.75,-0.2,3.3));
#1516=CARTESIAN_POINT('',(-0.399999991059303,-0.199999995529652,3.5));
#1517=CARTESIAN_POINT('Origin',(0.399999991059303,1.79999995976686,3.5));
#1518=CARTESIAN_POINT('',(0.399999991059303,1.79999995976686,3.3));
#1519=CARTESIAN_POINT('',(0.399999991059303,1.79999995976686,3.5));
#1520=CARTESIAN_POINT('',(0.399999991059303,1.79999995976686,3.3));
#1521=CARTESIAN_POINT('Origin',(-0.399999991059303,1.8,3.5));
#1522=CARTESIAN_POINT('',(-0.399999991059303,1.79999995976686,3.3));
#1523=CARTESIAN_POINT('',(-0.399999991059303,1.79999995976686,3.5));
#1524=CARTESIAN_POINT('',(-0.75,1.8,3.3));
#1525=CARTESIAN_POINT('Origin',(-0.399999991059303,-0.199999995529652,3.5));
#1526=CARTESIAN_POINT('',(-0.399999991059303,-0.199999995529652,3.3));
#1527=CARTESIAN_POINT('Origin',(0.,0.8,3.3));
#1528=CARTESIAN_POINT('Origin',(-0.75,-0.2,3.5));
#1529=CARTESIAN_POINT('',(-0.75,-1.7,6.5));
#1530=CARTESIAN_POINT('Origin',(0.,-0.95,6.5));
#1531=CARTESIAN_POINT('Origin',(1.95,-4.4,0.));
#1532=CARTESIAN_POINT('',(1.95,-4.4,0.));
#1533=CARTESIAN_POINT('',(1.95,-4.4,0.));
#1534=CARTESIAN_POINT('',(1.95,4.4,0.));
#1535=CARTESIAN_POINT('Origin',(-1.95,-4.4,0.));
#1536=CARTESIAN_POINT('',(1.95,-4.4,0.));
#1537=CARTESIAN_POINT('Origin',(0.,0.,0.));
#1538=UNCERTAINTY_MEASURE_WITH_UNIT(LENGTH_MEASURE(0.01),#1542,
'DISTANCE_ACCURACY_VALUE',
'Maximum model space distance between geometric entities at asserted c
onnectivities');
#1539=UNCERTAINTY_MEASURE_WITH_UNIT(LENGTH_MEASURE(0.01),#1542,
'DISTANCE_ACCURACY_VALUE',
'Maximum model space distance between geometric entities at asserted c
onnectivities');
#1540=(
GEOMETRIC_REPRESENTATION_CONTEXT(3)
GLOBAL_UNCERTAINTY_ASSIGNED_CONTEXT((#1538))
GLOBAL_UNIT_ASSIGNED_CONTEXT((#1542,#1544,#1545))
REPRESENTATION_CONTEXT('','3D')
);
#1541=(
GEOMETRIC_REPRESENTATION_CONTEXT(3)
GLOBAL_UNCERTAINTY_ASSIGNED_CONTEXT((#1539))
GLOBAL_UNIT_ASSIGNED_CONTEXT((#1542,#1544,#1545))
REPRESENTATION_CONTEXT('','3D')
);
#1542=(
LENGTH_UNIT()
NAMED_UNIT(*)
SI_UNIT(.MILLI.,.METRE.)
);
#1543=(
LENGTH_UNIT()
NAMED_UNIT(*)
SI_UNIT($,.METRE.)
);
#1544=(
NAMED_UNIT(*)
PLANE_ANGLE_UNIT()
SI_UNIT($,.RADIAN.)
);
#1545=(
NAMED_UNIT(*)
SI_UNIT($,.STERADIAN.)
SOLID_ANGLE_UNIT()
);
#1546=SHAPE_DEFINITION_REPRESENTATION(#1547,#1548);
#1547=PRODUCT_DEFINITION_SHAPE('',$,#1550);
#1548=SHAPE_REPRESENTATION('',(#958),#1540);
#1549=PRODUCT_DEFINITION_CONTEXT('part definition',#1554,'design');
#1550=PRODUCT_DEFINITION('(Unsaved)','(Unsaved)',#1551,#1549);
#1551=PRODUCT_DEFINITION_FORMATION('',$,#1556);
#1552=PRODUCT_RELATED_PRODUCT_CATEGORY('(Unsaved)','(Unsaved)',(#1556));
#1553=APPLICATION_PROTOCOL_DEFINITION('international standard',
'ap242_managed_model_based_3d_engineering',2011,#1554);
#1554=APPLICATION_CONTEXT('Managed model based 3d engineering');
#1555=PRODUCT_CONTEXT('part definition',#1554,'mechanical');
#1556=PRODUCT('(Unsaved)','(Unsaved)',$,(#1555));
#1557=PRESENTATION_STYLE_ASSIGNMENT((#1558));
#1558=SURFACE_STYLE_USAGE(.BOTH.,#1559);
#1559=SURFACE_SIDE_STYLE('',(#1560));
#1560=SURFACE_STYLE_FILL_AREA(#1561);
#1561=FILL_AREA_STYLE('Steel - Satin',(#1562));
#1562=FILL_AREA_STYLE_COLOUR('Steel - Satin',#1563);
#1563=COLOUR_RGB('Steel - Satin',0.627450980392157,0.627450980392157,0.627450980392157);
ENDSEC;
END-ISO-10303-21;
